<?xml version="1.0" encoding="utf-8"?>
<!-- Generator: Adobe Illustrator 24.0.1, SVG Export Plug-In . SVG Version: 6.00 Build 0)  -->
<svg version="1.1" xmlns="http://www.w3.org/2000/svg" xmlns:xlink="http://www.w3.org/1999/xlink" x="0px" y="0px"
	 viewBox="0 0 351.1 421.9" style="enable-background:new 0 0 351.1 421.9;" xml:space="preserve">
<style type="text/css">
	.st0{fill:url(#SVGID_1_);}
	.st1{fill:#FEE4C4;}
	.st2{fill:url(#SVGID_2_);}
	.st3{opacity:0.8;fill:#FEE4C4;}
	.st4{fill:url(#SVGID_3_);}
	.st5{fill:url(#SVGID_4_);}
	.st6{fill:url(#SVGID_5_);}
	.st7{fill:url(#SVGID_6_);}
	.st8{fill:url(#SVGID_7_);}
	.st9{fill:url(#SVGID_8_);}
	.st10{fill:url(#SVGID_9_);}
	.st11{fill:url(#SVGID_10_);}
	.st12{display:none;}
</style>
<g id="Layer_1">
	<g>
		<linearGradient id="SVGID_1_" gradientUnits="userSpaceOnUse" x1="68.0476" y1="426.5627" x2="93.4125" y2="314.2702">
			<stop  offset="0.3232" style="stop-color:#24AA00;stop-opacity:0.7"/>
			<stop  offset="0.8035" style="stop-color:#0B620A;stop-opacity:0.9129"/>
			<stop  offset="1" style="stop-color:#00430E"/>
		</linearGradient>
		<path class="st0" d="M71.5,414.2l20.8-42.1L60.8,416l27.9-51l-41.4,56.9L82.5,362l-33.1,46.8l29-49.8L46,399.4l22.8-36.2l-31,40.9
			l24.9-42.7l-29.7,42.7l56.8-85.2c26.1-7.2,34.2,6.8,37,26.5L71.5,414.2z"/>
		<path class="st1" d="M71.5,414.2L92.1,372l0.3,0.2L61,416.1l-0.4-0.3l27.9-51l0.5,0.3L47.6,422l-0.5-0.3l35.2-59.8l0.3,0.2
			l-33.2,46.8l-0.2-0.1l28.9-49.8l0.3,0.2l-32.4,40.4l-0.4-0.3L68.5,363l0.5,0.3l-31,40.9l-0.6-0.4l24.9-42.7l0.6,0.4l-29.7,42.7
			l-0.6-0.4L61,361.3l28.5-42.6l0.1-0.1l0.1,0c4.4-1.2,8.9-2,13.5-1.9c4.6,0.1,9.2,1.4,12.9,4.2c3.6,2.8,6.1,6.9,7.7,11.2
			c1.6,4.3,2.5,8.8,3.2,13.2l0,0.1l-0.1,0.1L71.5,414.2z M71.5,414.1l55-68.9l0,0.2c-0.7-4.5-1.6-8.9-3.2-13.1
			c-1.6-4.2-4-8.2-7.6-10.9c-3.6-2.7-8.1-4-12.6-4.1c-4.5-0.1-9,0.7-13.3,1.9l0.2-0.1l-28.4,42.6l-28.4,42.6l-0.6-0.4l29.7-42.7
			l0.6,0.4L38,404.3l-0.6-0.4L68.5,363l0.5,0.3l-22.8,36.1l-0.4-0.3l32.5-40.3l0.3,0.2l-29,49.8l-0.2-0.1l33-46.9l0.3,0.2L47.6,422
			l-0.5-0.3l41.3-56.9l0.5,0.3l-28,51l-0.4-0.3L92.1,372l0.3,0.2L71.5,414.1z"/>
	</g>
	<g>
		<linearGradient id="SVGID_2_" gradientUnits="userSpaceOnUse" x1="8.8768" y1="357.4266" x2="78.8448" y2="310.5048">
			<stop  offset="0.3232" style="stop-color:#24AA00;stop-opacity:0.7"/>
			<stop  offset="0.8035" style="stop-color:#0B620A;stop-opacity:0.9129"/>
			<stop  offset="1" style="stop-color:#00430E"/>
		</linearGradient>
		<path class="st2" d="M0,364.3l32.8-36L2.4,373.9l38.7-45.9L1.7,387.8l44.6-55.8l-32.7,48.3l37.2-46.2l-26.7,44.9l26.4-35l-27.8,44
			l31.9-39.6l-30,43.7L84.2,319c-3-24.9-18.7-33.3-38.7-31.2L0,364.3z"/>
		<g>
			<path class="st1" d="M0,364.2l32.7-36.1l0.3,0.2L2.6,374.1l-0.4-0.3l38.7-45.9l0.5,0.4L2,387.9l-0.4-0.3l44.7-55.8l0.3,0.2
				l-32.8,48.3l-0.2-0.1L50.6,334l0.3,0.2L24.3,379l-0.4-0.3l26.3-35l0.5,0.3l-27.8,44l-0.6-0.4l31.9-39.7l0.6,0.4l-30,43.7
				l-0.6-0.4L84,318.8l-0.1,0.2c-0.6-4.6-1.7-9.2-3.5-13.5c-1.9-4.3-4.6-8.2-8.2-11.1c-3.6-3-8-4.9-12.6-5.8c-4.6-0.9-9.3-1-14-0.5
				l0.2-0.1L0,364.2z M0,364.3l45.4-76.6l0.1-0.1l0.1,0c4.7-0.5,9.5-0.5,14.1,0.5c4.6,0.9,9.1,2.9,12.8,5.9c3.7,3,6.5,7,8.4,11.3
				c1.9,4.3,3,9,3.6,13.7l0,0.1l-0.1,0.1l-59.7,73l-0.6-0.4l30-43.7l0.6,0.4l-31.9,39.6l-0.6-0.4l27.8-44l0.5,0.3l-26.4,34.9
				l-0.4-0.3L50.6,334l0.3,0.2l-37.2,46.2l-0.2-0.1l32.7-48.4l0.3,0.2L1.9,387.9l-0.4-0.3l39.3-59.7l0.5,0.4L2.5,374.1l-0.4-0.3
				l30.5-45.7l0.3,0.2L0,364.3z"/>
		</g>
	</g>
	<g>
		<path class="st1" d="M330.5,20.3c0.8-0.3,1.8,0.2,1.9,1.1c0.1,0.4-0.1,0.8-0.2,1.1l-0.3,1.1l-1.1,4.3c-0.7,2.9-1.5,5.8-2.3,8.6
			c-1.6,5.7-3.3,11.4-5.2,17c-1.9,5.6-3.9,11.2-6.1,16.8c-2.2,5.5-4.5,11-7.1,16.3c-2.5,5.4-5.4,10.6-8.3,15.8
			c-0.7,1.3-1.6,2.5-2.3,3.8c-0.8,1.3-1.5,2.5-2.4,3.8c-1.7,2.4-3.4,4.9-5.1,7.3l-5.4,7.1l-5.6,6.9c-1.9,2.3-3.8,4.6-5.7,6.8
			l-2.9,3.4l-2.9,3.4c-15.6,18-31.8,35.4-47.4,53.3c-7.8,8.9-15.5,18-22.7,27.4c-1.8,2.4-3.6,4.7-5.3,7.2c-1.7,2.4-3.4,4.8-4.9,7.4
			l-2.2,3.8c0,0.1-0.1,0.5-0.2,0.9l-0.2,1.1l-0.4,2.2c-0.6,2.9-1.1,5.9-1.7,8.8c-2.6,11.6-6.3,23-11.2,34
			c-4.8,10.9-10.9,21.3-18.2,30.8c-3.6,4.8-7.6,9.2-11.8,13.5c-4.2,4.2-8.8,8.1-13.7,11.6l-0.5,0.3c-0.3,0.2-0.6,0.3-0.9,0.3
			c-0.6,0.1-1.3-0.1-1.8-0.6c-0.2-0.2-0.4-0.5-0.5-0.8c-0.1-0.2-0.1-0.3-0.1-0.5l0-0.3l-0.1-1.1c-0.2-1.5-0.4-2.9-0.7-4.3
			c-0.6-2.9-1.4-5.7-2.5-8.3c-0.6-1.3-1.2-2.6-2-3.8c-0.8-1.2-1.7-2.3-2.6-3.3c-2-2-4.4-3.5-7.1-4.4c-2.7-0.9-5.6-1-8.4-0.8
			c-2.9,0.2-5.7,0.9-8.5,1.8l-2.1,0.7l-0.3,0.1c-0.2,0-0.3,0.1-0.5,0.1c-0.3,0-0.7,0-1-0.2c-0.6-0.3-1.1-0.8-1.3-1.4
			c-0.2-0.6-0.1-1.4,0.3-1.9l0.1-0.2l0.1-0.1l0.2-0.2l0.4-0.4l1.4-1.7l5.7-6.8l23-27.2l46-54.5l1.8,1.6l-49.4,54.7l-24.7,27.4
			l-6.2,6.8l-1.5,1.7l-0.4,0.4c-0.2,0.2-0.5,0.5-0.9,0.7c-0.8,0.4-1.7,0.3-2.4-0.1c-0.7-0.4-1.3-1.1-1.4-1.9c-0.1-0.5,0-0.5,0-0.8
			l0-0.6c0-0.7-0.1-1.5-0.1-2.2c-0.5-5.9-2.2-11.8-5.4-16.7c-1.6-2.4-3.6-4.6-5.9-6.2c-1.2-0.8-2.4-1.5-3.7-2.1
			c-1.3-0.5-2.7-1-4.1-1.2c-2.8-0.5-5.8-0.4-8.7,0.1c-0.7,0.1-1.4,0.2-2.2,0.4c-0.7,0.2-1.4,0.3-2.1,0.6c-0.7,0.2-1.4,0.4-2.1,0.7
			l-1,0.4l-0.6,0.2c-0.4,0.1-0.8,0.2-1.3,0.1c-0.9-0.1-1.6-0.7-2-1.4c-0.4-0.7-0.5-1.7-0.1-2.5c0-0.1,0.1-0.2,0.1-0.2l0.1-0.1
			l0.1-0.3l0.3-0.5l0.6-1l2.3-4c0.7-1.4,1.6-2.7,2.4-4l2.5-3.9c0.8-1.3,1.7-2.6,2.6-3.9l2.6-3.8c1.8-2.5,3.7-4.9,5.6-7.4
			c7.7-9.7,16.4-18.6,26-26.5c9.6-7.9,20-14.8,31.2-20.1c0.7-0.3,1.4-0.7,2.1-1l2.2-0.9l4.3-1.8c1.4-0.6,2.9-1,4.4-1.5
			c1.5-0.5,2.9-1,4.4-1.4l4.5-1.2l2.3-0.6l0.1,0c0,0,0,0,0,0c0,0,0,0,0,0c0,0,0,0,0,0c0,0,0,0,0-0.1l0.7-0.9l5.5-7.4l21.9-29.6
			c14.7-19.7,29.5-39.3,44.5-58.8c7.5-9.7,15.1-19.4,22.9-28.9c3.9-4.8,7.8-9.5,12.4-13.7l3.5-3c1.2-1,2.4-1.9,3.7-2.8
			c2.4-1.9,5-3.6,7.5-5.3c10.3-6.8,21.2-12.6,32.2-17.9C307.8,29.6,319.1,24.7,330.5,20.3z M330.6,20.6
			c-11.4,4.5-22.7,9.4-33.7,14.8c-11,5.4-21.8,11.3-32,18.1c-2.5,1.8-5.1,3.4-7.4,5.4c-1.2,1-2.4,1.9-3.6,2.8l-3.4,3
			c-4.4,4.2-8.3,8.9-12.1,13.7c-7.7,9.6-15.1,19.4-22.5,29.2c-14.8,19.6-29.3,39.4-43.8,59.3l-21.7,29.8l-5.4,7.5l-0.7,0.9
			c0,0-0.2,0.2-0.3,0.4c-0.1,0.1-0.3,0.3-0.5,0.4c-0.2,0.1-0.4,0.2-0.6,0.3c-0.1,0-0.2,0.1-0.3,0.1l-0.1,0l-2.2,0.6l-4.4,1.2
			c-1.5,0.4-2.9,1-4.3,1.4c-1.4,0.5-2.9,0.9-4.3,1.5l-4.2,1.8l-2.1,0.9c-0.7,0.3-1.4,0.7-2,1c-11,5.2-21.2,12-30.6,19.7
			c-9.4,7.8-17.9,16.5-25.5,26.1c-1.8,2.4-3.7,4.8-5.5,7.3l-2.6,3.8c-0.9,1.3-1.8,2.5-2.6,3.8l-2.4,3.9c-0.8,1.3-1.6,2.6-2.4,3.9
			l-2.2,4l-1.1,1.9c0-0.1,0-0.2,0-0.2c0,0-0.1-0.1-0.2-0.1c0,0-0.1,0-0.1,0c0,0,0,0,0.1,0l0.1-0.1l0.3-0.1l1.1-0.4
			c0.7-0.3,1.5-0.5,2.3-0.7c0.8-0.2,1.5-0.4,2.3-0.6c0.8-0.2,1.6-0.3,2.4-0.5c3.2-0.5,6.4-0.6,9.7,0c1.6,0.3,3.2,0.8,4.7,1.4
			c1.5,0.7,3,1.4,4.3,2.4c2.7,1.9,5,4.3,6.7,7c3.5,5.4,5.3,11.7,5.8,18c0.1,0.8,0.1,1.6,0.1,2.4l0,1c0,0-0.1-0.1-0.1-0.1
			c0,0-0.1,0-0.2,0c0,0-0.1,0.1,0,0l0.4-0.4l1.5-1.7l6.2-6.8l24.8-27.3l49.6-54.6l1.8,1.6l-46.2,54.3l-23.1,27.2l-5.8,6.8l-1.4,1.7
			l-0.4,0.4l-0.2,0.2l-0.1,0.1l0,0c-0.1,0.1,0,0.1,0,0.2c0,0.1,0.1,0.2,0.2,0.2c0,0,0,0,0.1,0c0,0,0.1,0,0.3-0.1l2.1-0.7
			c2.9-0.9,5.9-1.6,8.9-1.8c3-0.2,6.2-0.1,9.2,0.9c3,0.9,5.7,2.6,7.9,4.9c1.1,1.1,2,2.4,2.9,3.7c0.8,1.3,1.5,2.7,2.1,4.1
			c1.2,2.8,2,5.7,2.6,8.7c0.3,1.5,0.5,3,0.7,4.5l0.1,1.1c0,0.1,0,0.2,0,0.2c0,0,0,0.1,0,0.1c0,0,0,0.1,0.1,0.1
			c0.1,0.1,0.2,0.1,0.3,0.1c0,0,0.1,0,0.1-0.1l0.5-0.3c4.8-3.3,9.3-7.2,13.5-11.3c4.2-4.2,8.1-8.5,11.7-13.3
			c7.2-9.3,13.3-19.6,18.1-30.4c4.8-10.8,8.5-22.1,11.2-33.6c0.6-2.9,1.1-5.8,1.7-8.7l0.4-2.2l0.2-1.1c0.1-0.4,0.1-0.7,0.3-1.3
			l2.3-3.9c1.5-2.6,3.3-5,4.9-7.5c1.7-2.5,3.5-4.8,5.3-7.2c7.3-9.4,15.1-18.4,22.9-27.3c15.8-17.8,32.1-35.1,47.7-53l2.9-3.3
			l2.9-3.4c1.9-2.3,3.9-4.5,5.8-6.8l5.6-6.9l5.4-7.1c1.8-2.4,3.4-4.8,5.2-7.3c0.9-1.2,1.6-2.5,2.4-3.7c0.8-1.3,1.6-2.5,2.3-3.8
			c3-5.1,5.8-10.3,8.4-15.7c2.6-5.3,4.9-10.8,7.1-16.3c2.2-5.5,4.2-11.1,6.1-16.7c1.9-5.6,3.6-11.3,5.2-17c0.8-2.9,1.6-5.7,2.3-8.6
			l1.1-4.3l0.3-1.1c0.1-0.4,0.2-0.7,0.2-1C332,20.7,331.2,20.3,330.6,20.6z"/>
	</g>
	<path class="st3" d="M51,273.9c18.8-10,50.4,5.7,43.4,34L82,321.5c-5.3-21.4-18.9-31.7-41.1-30.3L51,273.9z"/>
	<path class="st3" d="M86.4,322.8l17.1-20.2c16.8-1.5,29.2,10.3,38.1,33.1l-14.7,11.8C122.7,324.9,108.8,317.4,86.4,322.8z"/>
	<g>
		<g>
			<linearGradient id="SVGID_3_" gradientUnits="userSpaceOnUse" x1="219.7061" y1="117.0439" x2="232.8649" y2="117.0439">
				<stop  offset="0.3232" style="stop-color:#24AA00;stop-opacity:0.7"/>
				<stop  offset="0.8035" style="stop-color:#0B620A;stop-opacity:0.9129"/>
				<stop  offset="1" style="stop-color:#00430E"/>
			</linearGradient>
			<circle class="st4" cx="226.3" cy="117" r="6.6"/>
			<path class="st1" d="M232.9,117c0,1.7-0.6,3.5-1.8,4.8c-1.2,1.4-3,2.1-4.8,2.1c-3.7-0.1-6.7-3.3-6.8-6.9
				c-0.1-1.8,0.6-3.6,1.9-4.9c1.3-1.3,3.1-2.1,4.9-2.1c1.8,0,3.6,0.8,4.8,2.2C232.3,113.6,232.9,115.3,232.9,117z M232.8,117
				c0-1.7-0.8-3.4-2.1-4.5c-1.2-1.1-2.9-1.7-4.5-1.7c-1.6,0-3.2,0.6-4.4,1.8c-1.2,1.1-1.9,2.7-2,4.4c-0.1,1.7,0.6,3.4,1.8,4.6
				c1.2,1.2,2.9,1.8,4.6,1.7c1.6,0,3.2-0.7,4.5-1.8C232,120.4,232.8,118.8,232.8,117z"/>
		</g>
		<g>
			<linearGradient id="SVGID_4_" gradientUnits="userSpaceOnUse" x1="246.7848" y1="86.3288" x2="259.9436" y2="86.3288">
				<stop  offset="0.3232" style="stop-color:#24AA00;stop-opacity:0.7"/>
				<stop  offset="0.8035" style="stop-color:#0B620A;stop-opacity:0.9129"/>
				<stop  offset="1" style="stop-color:#00430E"/>
			</linearGradient>
			<circle class="st5" cx="253.4" cy="86.3" r="6.6"/>
			<path class="st1" d="M260,86.3c0,1.7-0.6,3.5-1.8,4.8c-1.2,1.4-3,2.1-4.8,2.1c-3.7-0.1-6.7-3.3-6.8-6.9c-0.1-1.8,0.6-3.6,1.9-4.9
				c1.3-1.3,3.1-2.1,4.9-2.1c1.8,0,3.6,0.8,4.8,2.2C259.4,82.8,260,84.6,260,86.3z M259.9,86.3c0-1.7-0.8-3.4-2.1-4.5
				c-1.2-1.1-2.9-1.7-4.5-1.7c-1.6,0-3.2,0.6-4.4,1.8c-1.2,1.1-1.9,2.7-2,4.4c-0.1,1.7,0.6,3.4,1.8,4.6c1.2,1.2,2.9,1.8,4.6,1.7
				c1.6,0,3.2-0.7,4.5-1.8C259.1,89.7,259.9,88.1,259.9,86.3z"/>
		</g>
		<g>
			<linearGradient id="SVGID_5_" gradientUnits="userSpaceOnUse" x1="193.3885" y1="147.759" x2="206.5473" y2="147.759">
				<stop  offset="0.3232" style="stop-color:#24AA00;stop-opacity:0.7"/>
				<stop  offset="0.8035" style="stop-color:#0B620A;stop-opacity:0.9129"/>
				<stop  offset="1" style="stop-color:#00430E"/>
			</linearGradient>
			<circle class="st6" cx="200" cy="147.8" r="6.6"/>
			<path class="st1" d="M206.6,147.8c0,1.7-0.6,3.5-1.8,4.8c-1.2,1.4-3,2.1-4.8,2.1c-3.7-0.1-6.7-3.3-6.8-6.9
				c-0.1-1.8,0.6-3.6,1.9-4.9c1.3-1.3,3.1-2.1,4.9-2.1c1.8,0,3.6,0.8,4.8,2.2C206,144.3,206.6,146,206.6,147.8z M206.5,147.8
				c0-1.7-0.8-3.4-2.1-4.5c-1.2-1.1-2.9-1.7-4.5-1.7c-1.6,0-3.2,0.6-4.4,1.8c-1.2,1.1-1.9,2.7-2,4.4c-0.1,1.7,0.6,3.4,1.8,4.6
				c1.2,1.2,2.9,1.8,4.6,1.7c1.6,0,3.2-0.7,4.5-1.8C205.7,151.1,206.5,149.5,206.5,147.8z"/>
		</g>
		<g>
			<linearGradient id="SVGID_6_" gradientUnits="userSpaceOnUse" x1="232.8649" y1="101.6864" x2="246.0237" y2="101.6864">
				<stop  offset="0.3232" style="stop-color:#24AA00;stop-opacity:0.7"/>
				<stop  offset="0.8035" style="stop-color:#0B620A;stop-opacity:0.9129"/>
				<stop  offset="1" style="stop-color:#00430E"/>
			</linearGradient>
			<circle class="st7" cx="239.4" cy="101.7" r="6.6"/>
			<path class="st1" d="M246.1,101.7c0,1.7-0.6,3.5-1.8,4.8c-1.2,1.4-3,2.1-4.8,2.1c-3.7-0.1-6.7-3.3-6.8-6.9
				c-0.1-1.8,0.6-3.6,1.9-4.9c1.3-1.3,3.1-2.1,4.9-2.1c1.8,0,3.6,0.8,4.8,2.2C245.5,98.2,246.1,100,246.1,101.7z M246,101.7
				c0-1.7-0.8-3.4-2.1-4.5c-1.2-1.1-2.9-1.7-4.5-1.7c-1.6,0-3.2,0.6-4.4,1.8c-1.2,1.1-1.9,2.7-2,4.4c-0.1,1.7,0.6,3.4,1.8,4.6
				c1.2,1.2,2.9,1.8,4.6,1.7c1.6,0,3.2-0.7,4.5-1.8C245.2,105.1,246,103.4,246,101.7z"/>
		</g>
		<g>
			<linearGradient id="SVGID_7_" gradientUnits="userSpaceOnUse" x1="206.5473" y1="132.4015" x2="219.7061" y2="132.4015">
				<stop  offset="0.3232" style="stop-color:#24AA00;stop-opacity:0.7"/>
				<stop  offset="0.8035" style="stop-color:#0B620A;stop-opacity:0.9129"/>
				<stop  offset="1" style="stop-color:#00430E"/>
			</linearGradient>
			<circle class="st8" cx="213.1" cy="132.4" r="6.6"/>
			<path class="st1" d="M219.7,132.4c0,1.7-0.6,3.5-1.8,4.8c-1.2,1.4-3,2.1-4.8,2.1c-3.7-0.1-6.7-3.3-6.8-6.9
				c-0.1-1.8,0.6-3.6,1.9-4.9c1.3-1.3,3.1-2.1,4.9-2.1c1.8,0,3.6,0.8,4.8,2.2C219.2,128.9,219.7,130.7,219.7,132.4z M219.7,132.4
				c0-1.7-0.8-3.4-2.1-4.5c-1.2-1.1-2.9-1.7-4.5-1.7c-1.6,0-3.2,0.6-4.4,1.8c-1.2,1.1-1.9,2.7-2,4.4c-0.1,1.7,0.6,3.4,1.8,4.6
				c1.2,1.2,2.9,1.8,4.6,1.7c1.6,0,3.2-0.7,4.5-1.8C218.9,135.8,219.7,134.1,219.7,132.4z"/>
		</g>
		<g>
			<linearGradient id="SVGID_8_" gradientUnits="userSpaceOnUse" x1="184.0192" y1="163.1165" x2="197.178" y2="163.1165">
				<stop  offset="0.3232" style="stop-color:#24AA00;stop-opacity:0.7"/>
				<stop  offset="0.8035" style="stop-color:#0B620A;stop-opacity:0.9129"/>
				<stop  offset="1" style="stop-color:#00430E"/>
			</linearGradient>
			<circle class="st9" cx="190.6" cy="163.1" r="6.6"/>
			<path class="st1" d="M197.2,163.1c0,1.7-0.6,3.5-1.8,4.8c-1.2,1.4-3,2.1-4.8,2.1c-3.7-0.1-6.7-3.3-6.8-6.9
				c-0.1-1.8,0.6-3.6,1.9-4.9c1.3-1.3,3.1-2.1,4.9-2.1c1.8,0,3.6,0.8,4.8,2.2C196.6,159.6,197.2,161.4,197.2,163.1z M197.1,163.1
				c0-1.7-0.8-3.4-2.1-4.5c-1.2-1.1-2.9-1.7-4.5-1.7c-1.6,0-3.2,0.6-4.4,1.8c-1.2,1.1-1.9,2.7-2,4.4c-0.1,1.7,0.6,3.4,1.8,4.6
				c1.2,1.2,2.9,1.8,4.6,1.7c1.6,0,3.2-0.7,4.5-1.8C196.3,166.5,197.2,164.8,197.1,163.1z"/>
		</g>
	</g>
	<g>
		<path class="st1" d="M198.2,172.2l1.2-1.4l1.2-1.4l1.2-1.4l1.2-1.4l0.6,0.5l0.6,0.5l0.6,0.5l0.6,0.5l-0.5,0.6l-0.5,0.6l-0.5,0.6
			l-0.5,0.6l0.6,0.5l0.6,0.5l0.6,0.5l0.6,0.5l0.4-0.5l0.4-0.5l0.4-0.5l0.4-0.5l0.6,0.5l0.6,0.5l0.6,0.5l0.6,0.5l-0.4,0.5l-0.4,0.5
			l-0.4,0.5l-0.4,0.5l1.3,1.1l1.3,1.1l1.3,1.1l1.3,1.1l-0.7,0.8l-0.7,0.8l-0.7,0.8l-0.7,0.8l-3.2-2.7l-3.2-2.7l-3.2-2.7L198.2,172.2
			z"/>
		<path class="st1" d="M203.5,165.8l1.2-1.4l1.2-1.4l1.2-1.4l1.2-1.4l0.6,0.5l0.6,0.5l0.6,0.5l0.6,0.5l-0.5,0.6l-0.5,0.6l-0.5,0.6
			l-0.5,0.6l0.6,0.5l0.6,0.5l0.6,0.5l0.6,0.5l0.4-0.5l0.4-0.5l0.4-0.5l0.4-0.5l0.6,0.5l0.6,0.5l0.6,0.5l0.6,0.5l-0.4,0.5l-0.4,0.5
			l-0.4,0.5l-0.4,0.5l0.7,0.6l0.7,0.6l0.7,0.6l0.7,0.6l0.5-0.6l0.5-0.6l0.5-0.6l0.5-0.6l0.6,0.5l0.6,0.5l0.6,0.5l0.6,0.5l-1.2,1.4
			l-1.2,1.4l-1.2,1.4l-1.2,1.4l-3.2-2.7l-3.2-2.7l-3.2-2.7L203.5,165.8z"/>
		<path class="st1" d="M218.9,155.3l-0.6,0.8l-0.6,0.8l-0.6,0.8l-0.6,0.8l-0.2-0.2l-0.2-0.2l-0.2-0.2l-0.2-0.2
			c-0.1-0.1-0.2-0.2-0.3-0.2c-0.1-0.1-0.2-0.1-0.3-0.2s-0.1-0.1-0.2-0.1c-0.1,0-0.1,0-0.2,0c0,0-0.1,0-0.1,0c0,0-0.1,0-0.1,0
			s-0.1,0-0.1,0.1c0,0-0.1,0.1-0.1,0.1c0,0-0.1,0.1-0.1,0.2c0,0.1,0,0.1-0.1,0.2s0,0.1,0,0.2c0,0.1,0,0.1,0,0.2c0,0.1,0,0.1,0.1,0.2
			c0,0.1,0.1,0.1,0.1,0.2s0.1,0.1,0.2,0.2c0.1,0.1,0.1,0.1,0.2,0.2c0.1,0.1,0.2,0.2,0.3,0.2c0.1,0.1,0.2,0.1,0.3,0.2
			s0.2,0.1,0.3,0.1c0.1,0,0.2,0.1,0.2,0.1c0.1,0,0.2,0,0.3,0s0.2,0,0.4,0s0.3-0.1,0.4-0.1s0.3-0.1,0.5-0.2c0.5-0.2,1-0.3,1.5-0.5
			c0.5-0.1,0.9-0.2,1.2-0.3s0.7-0.1,1-0.2c0.3,0,0.6,0,0.8,0c0.2,0,0.5,0.1,0.7,0.2s0.5,0.2,0.8,0.3s0.5,0.3,0.8,0.5
			s0.6,0.4,0.9,0.7c0.2,0.2,0.4,0.4,0.6,0.6c0.2,0.2,0.4,0.4,0.5,0.5s0.3,0.3,0.4,0.5c0.1,0.2,0.2,0.3,0.2,0.4
			c0.1,0.1,0.1,0.3,0.1,0.5c0,0.2,0.1,0.3,0.1,0.5s0,0.4,0,0.6c0,0.2-0.1,0.4-0.1,0.6c-0.1,0.2-0.1,0.4-0.2,0.6
			c-0.1,0.2-0.2,0.4-0.3,0.6s-0.2,0.4-0.4,0.6c-0.1,0.2-0.3,0.4-0.5,0.6c-0.2,0.2-0.4,0.4-0.6,0.6c-0.2,0.2-0.4,0.4-0.6,0.5
			s-0.4,0.3-0.6,0.4c-0.2,0.1-0.4,0.2-0.6,0.3c-0.2,0.1-0.4,0.2-0.6,0.2s-0.4,0.1-0.6,0.1s-0.4,0-0.6,0s-0.4-0.1-0.5-0.1
			c-0.2-0.1-0.3-0.1-0.5-0.2c-0.2-0.1-0.4-0.2-0.6-0.3s-0.4-0.3-0.6-0.4c-0.2-0.2-0.5-0.3-0.7-0.5l-0.2-0.2l-0.2-0.2l-0.2-0.2
			l-0.2-0.2l0.6-0.8l0.6-0.8l0.6-0.8l0.6-0.8l0.4,0.3l0.4,0.3l0.4,0.3l0.4,0.3c0.1,0.1,0.2,0.2,0.3,0.3c0.1,0.1,0.2,0.1,0.3,0.2
			s0.2,0.1,0.2,0.1c0.1,0,0.1,0,0.2,0.1c0.1,0,0.1,0,0.2,0s0.1,0,0.1,0s0.1-0.1,0.1-0.1s0.1-0.1,0.1-0.1c0-0.1,0.1-0.1,0.1-0.2
			c0-0.1,0.1-0.1,0.1-0.2s0-0.1,0-0.2c0-0.1,0-0.1,0-0.2c0-0.1,0-0.1-0.1-0.2s-0.1-0.1-0.1-0.2s-0.1-0.1-0.2-0.2s-0.1-0.1-0.2-0.2
			c-0.2-0.2-0.4-0.3-0.5-0.4s-0.3-0.2-0.5-0.3s-0.3-0.1-0.4-0.2s-0.2-0.1-0.3-0.1c-0.1,0-0.2,0-0.4,0c-0.2,0-0.3,0.1-0.5,0.1
			s-0.4,0.1-0.7,0.2c-0.3,0.1-0.5,0.2-0.8,0.2c-0.3,0.1-0.6,0.2-0.9,0.2s-0.5,0.1-0.7,0.2s-0.4,0.1-0.6,0.1s-0.3,0.1-0.4,0.1
			c-0.1,0-0.2,0-0.4,0c-0.1,0-0.3,0-0.4,0s-0.3,0-0.4-0.1c-0.1,0-0.3-0.1-0.4-0.1c-0.1,0-0.3-0.1-0.4-0.2c-0.2-0.1-0.3-0.2-0.5-0.2
			s-0.3-0.2-0.5-0.3c-0.2-0.1-0.3-0.2-0.5-0.4c-0.2-0.2-0.5-0.4-0.7-0.6c-0.2-0.2-0.4-0.4-0.5-0.6s-0.3-0.4-0.4-0.5
			c-0.1-0.2-0.2-0.3-0.3-0.5c-0.1-0.2-0.1-0.3-0.1-0.5c0-0.2-0.1-0.3-0.1-0.5s0-0.4,0-0.5c0-0.2,0.1-0.4,0.1-0.6
			c0.1-0.2,0.1-0.4,0.2-0.6c0.1-0.2,0.2-0.4,0.3-0.6s0.2-0.4,0.4-0.6c0.1-0.2,0.3-0.4,0.5-0.6c0.2-0.2,0.4-0.4,0.5-0.6
			c0.2-0.2,0.4-0.4,0.6-0.5s0.4-0.3,0.6-0.4c0.2-0.1,0.4-0.2,0.6-0.3c0.2-0.1,0.4-0.2,0.6-0.2c0.2-0.1,0.4-0.1,0.5-0.1s0.3,0,0.5,0
			c0.2,0,0.3,0,0.5,0.1c0.1,0,0.3,0.1,0.5,0.2c0.2,0.1,0.4,0.2,0.6,0.3s0.4,0.3,0.6,0.4c0.2,0.2,0.5,0.4,0.7,0.6l0.1,0.1l0.1,0.1
			l0.1,0.1L218.9,155.3z"/>
		<path class="st1" d="M216.1,150.8l1.2-1.4l1.2-1.4l1.2-1.4l1.2-1.4l0.6,0.5l0.6,0.5l0.6,0.5l0.6,0.5l-0.5,0.6l-0.5,0.6l-0.5,0.6
			l-0.5,0.6l0.6,0.5l0.6,0.5l0.6,0.5l0.6,0.5l0.4-0.5l0.4-0.5l0.4-0.5l0.4-0.5l0.6,0.5l0.6,0.5l0.6,0.5l0.6,0.5l-0.4,0.5l-0.4,0.5
			l-0.4,0.5l-0.4,0.5l0.7,0.6l0.7,0.6l0.7,0.6l0.7,0.6l0.5-0.6l0.5-0.6l0.5-0.6l0.5-0.6l0.6,0.5l0.6,0.5l0.6,0.5l0.6,0.5l-1.2,1.4
			l-1.2,1.4L230,160l-1.2,1.4l-3.2-2.7l-3.2-2.7l-3.2-2.7L216.1,150.8z"/>
		<path class="st1" d="M231.4,140.3l-0.6,0.8l-0.6,0.8l-0.6,0.8l-0.6,0.8l-0.2-0.2l-0.2-0.2l-0.2-0.2l-0.2-0.2
			c-0.1-0.1-0.2-0.2-0.3-0.2c-0.1-0.1-0.2-0.1-0.3-0.2s-0.1-0.1-0.2-0.1c-0.1,0-0.1,0-0.2,0c0,0-0.1,0-0.1,0c0,0-0.1,0-0.1,0
			s-0.1,0-0.1,0.1c0,0-0.1,0.1-0.1,0.1c0,0-0.1,0.1-0.1,0.2c0,0.1,0,0.1-0.1,0.2s0,0.1,0,0.2c0,0.1,0,0.1,0,0.2c0,0.1,0,0.1,0.1,0.2
			s0.1,0.1,0.1,0.2s0.1,0.1,0.2,0.2s0.1,0.1,0.2,0.2c0.1,0.1,0.2,0.2,0.3,0.2c0.1,0.1,0.2,0.1,0.3,0.2s0.2,0.1,0.3,0.1
			c0.1,0,0.2,0.1,0.2,0.1c0.1,0,0.2,0,0.3,0c0.1,0,0.2,0,0.4,0s0.3-0.1,0.4-0.1c0.2,0,0.3-0.1,0.5-0.2c0.5-0.2,1-0.3,1.5-0.5
			s0.9-0.2,1.2-0.3s0.7-0.1,1-0.2s0.6,0,0.8,0c0.2,0,0.5,0.1,0.7,0.2c0.2,0.1,0.5,0.2,0.8,0.3s0.5,0.3,0.8,0.5
			c0.3,0.2,0.6,0.4,0.9,0.7c0.2,0.2,0.4,0.4,0.6,0.6s0.4,0.4,0.5,0.5s0.3,0.3,0.4,0.5s0.2,0.3,0.2,0.4c0.1,0.1,0.1,0.3,0.1,0.5
			c0,0.2,0.1,0.3,0.1,0.5s0,0.4,0,0.6c0,0.2-0.1,0.4-0.1,0.6c-0.1,0.2-0.1,0.4-0.2,0.6c-0.1,0.2-0.2,0.4-0.3,0.6s-0.2,0.4-0.4,0.6
			c-0.1,0.2-0.3,0.4-0.5,0.6c-0.2,0.2-0.4,0.4-0.6,0.6s-0.4,0.4-0.6,0.5s-0.4,0.3-0.6,0.4s-0.4,0.2-0.6,0.3
			c-0.2,0.1-0.4,0.2-0.6,0.2s-0.4,0.1-0.6,0.1s-0.4,0-0.6,0s-0.4-0.1-0.5-0.1c-0.2-0.1-0.3-0.1-0.5-0.2c-0.2-0.1-0.4-0.2-0.6-0.3
			s-0.4-0.3-0.6-0.4c-0.2-0.2-0.5-0.3-0.7-0.5l-0.2-0.2l-0.2-0.2l-0.2-0.2l-0.2-0.2l0.6-0.8l0.6-0.8l0.6-0.8l0.6-0.8l0.4,0.3
			l0.4,0.3l0.4,0.3l0.4,0.3c0.1,0.1,0.2,0.2,0.3,0.3s0.2,0.1,0.3,0.2s0.2,0.1,0.2,0.1s0.1,0,0.2,0.1s0.1,0,0.2,0s0.1,0,0.1,0
			s0.1-0.1,0.1-0.1s0.1-0.1,0.1-0.1s0.1-0.1,0.1-0.2c0-0.1,0.1-0.1,0.1-0.2s0-0.1,0-0.2c0-0.1,0-0.1,0-0.2c0-0.1,0-0.1-0.1-0.2
			s-0.1-0.1-0.1-0.2s-0.1-0.1-0.2-0.2s-0.1-0.1-0.2-0.2c-0.2-0.2-0.4-0.3-0.5-0.4s-0.3-0.2-0.5-0.3s-0.3-0.1-0.4-0.2
			s-0.2-0.1-0.3-0.1c-0.1,0-0.2,0-0.4,0s-0.3,0.1-0.5,0.1s-0.4,0.1-0.7,0.2s-0.5,0.2-0.8,0.2c-0.3,0.1-0.6,0.2-0.9,0.2
			c-0.3,0.1-0.5,0.1-0.7,0.2s-0.4,0.1-0.6,0.1c-0.2,0-0.3,0.1-0.4,0.1c-0.1,0-0.2,0-0.4,0c-0.1,0-0.3,0-0.4,0s-0.3,0-0.4-0.1
			c-0.1,0-0.3-0.1-0.4-0.1c-0.1,0-0.3-0.1-0.4-0.2c-0.2-0.1-0.3-0.2-0.5-0.2s-0.3-0.2-0.5-0.3c-0.2-0.1-0.3-0.2-0.5-0.4
			c-0.2-0.2-0.5-0.4-0.7-0.6c-0.2-0.2-0.4-0.4-0.5-0.6s-0.3-0.4-0.4-0.5c-0.1-0.2-0.2-0.3-0.3-0.5c-0.1-0.2-0.1-0.3-0.1-0.5
			s-0.1-0.3-0.1-0.5s0-0.4,0-0.5s0.1-0.4,0.1-0.6c0.1-0.2,0.1-0.4,0.2-0.6c0.1-0.2,0.2-0.4,0.3-0.6s0.2-0.4,0.4-0.6
			c0.1-0.2,0.3-0.4,0.5-0.6c0.2-0.2,0.4-0.4,0.5-0.6c0.2-0.2,0.4-0.4,0.6-0.5s0.4-0.3,0.6-0.4c0.2-0.1,0.4-0.2,0.6-0.3
			s0.4-0.2,0.6-0.2c0.2-0.1,0.4-0.1,0.5-0.1s0.3,0,0.5,0c0.2,0,0.3,0,0.5,0.1c0.1,0,0.3,0.1,0.5,0.2s0.4,0.2,0.6,0.3
			s0.4,0.3,0.6,0.4s0.5,0.4,0.7,0.6l0.1,0.1l0.1,0.1l0.1,0.1L231.4,140.3z"/>
		<path class="st1" d="M234.6,128.7l1.5,2.3l1.5,2.3l1.5,2.3l1.5,2.3l1.2,1l1.2,1l1.2,1l1.2,1l-0.6,0.8l-0.6,0.8l-0.6,0.8l-0.6,0.8
			l-1.2-1l-1.2-1l-1.2-1l-1.2-1l-2.5-1.1l-2.5-1.1l-2.5-1.1l-2.5-1.1l0.6-0.8l0.6-0.8l0.6-0.8l0.6-0.8c0.7,0.4,1.4,0.8,2,1.1
			c0.6,0.3,1.1,0.7,1.6,0.9s0.9,0.5,1.2,0.8c0.4,0.2,0.6,0.4,0.9,0.6c-0.3-0.3-0.6-0.7-0.9-1.1s-0.7-0.8-1-1.2s-0.7-0.9-1.1-1.4
			s-0.8-1-1.2-1.5l0.6-0.8l0.6-0.8l0.6-0.8L234.6,128.7z"/>
		<path class="st1" d="M244.8,124.3l-0.6,0.8l-0.6,0.8l-0.6,0.8l-0.6,0.8l-0.2-0.2l-0.2-0.2l-0.2-0.2l-0.2-0.2
			c-0.1-0.1-0.2-0.2-0.3-0.2s-0.2-0.1-0.3-0.2s-0.1-0.1-0.2-0.1s-0.1,0-0.2,0c0,0-0.1,0-0.1,0s-0.1,0-0.1,0s-0.1,0-0.1,0.1
			s-0.1,0.1-0.1,0.1c0,0-0.1,0.1-0.1,0.2s0,0.1-0.1,0.2s0,0.1,0,0.2s0,0.1,0,0.2c0,0.1,0,0.1,0.1,0.2s0.1,0.1,0.1,0.2
			s0.1,0.1,0.2,0.2s0.1,0.1,0.2,0.2c0.1,0.1,0.2,0.2,0.3,0.2s0.2,0.1,0.3,0.2s0.2,0.1,0.3,0.1c0.1,0,0.2,0.1,0.2,0.1
			c0.1,0,0.2,0,0.3,0s0.2,0,0.4,0s0.3-0.1,0.4-0.1s0.3-0.1,0.5-0.2c0.5-0.2,1-0.3,1.5-0.5s0.9-0.2,1.2-0.3s0.7-0.1,1-0.2
			s0.6,0,0.8,0c0.2,0,0.5,0.1,0.7,0.2s0.5,0.2,0.8,0.3s0.5,0.3,0.8,0.5s0.6,0.4,0.9,0.7c0.2,0.2,0.4,0.4,0.6,0.6
			c0.2,0.2,0.4,0.4,0.5,0.5s0.3,0.3,0.4,0.5c0.1,0.2,0.2,0.3,0.2,0.4c0.1,0.1,0.1,0.3,0.1,0.5c0,0.2,0.1,0.3,0.1,0.5s0,0.4,0,0.6
			c0,0.2-0.1,0.4-0.1,0.6c-0.1,0.2-0.1,0.4-0.2,0.6s-0.2,0.4-0.3,0.6s-0.2,0.4-0.4,0.6s-0.3,0.4-0.5,0.6c-0.2,0.2-0.4,0.4-0.6,0.6
			c-0.2,0.2-0.4,0.4-0.6,0.5s-0.4,0.3-0.6,0.4c-0.2,0.1-0.4,0.2-0.6,0.3c-0.2,0.1-0.4,0.2-0.6,0.2s-0.4,0.1-0.6,0.1s-0.4,0-0.6,0
			s-0.4-0.1-0.5-0.1c-0.2-0.1-0.3-0.1-0.5-0.2s-0.4-0.2-0.6-0.3s-0.4-0.3-0.6-0.4s-0.5-0.3-0.7-0.5l-0.2-0.2l-0.2-0.2l-0.2-0.2
			l-0.2-0.2l0.6-0.8l0.6-0.8l0.6-0.8l0.6-0.8l0.4,0.3l0.4,0.3l0.4,0.3l0.4,0.3c0.1,0.1,0.2,0.2,0.3,0.3c0.1,0.1,0.2,0.1,0.3,0.2
			s0.2,0.1,0.2,0.1c0.1,0,0.1,0,0.2,0.1s0.1,0,0.2,0s0.1,0,0.1,0s0.1-0.1,0.1-0.1s0.1-0.1,0.1-0.1c0-0.1,0.1-0.1,0.1-0.2
			c0-0.1,0.1-0.1,0.1-0.2s0-0.1,0-0.2c0-0.1,0-0.1,0-0.2c0-0.1,0-0.1-0.1-0.2s-0.1-0.1-0.1-0.2s-0.1-0.1-0.2-0.2s-0.1-0.1-0.2-0.2
			c-0.2-0.2-0.4-0.3-0.5-0.4s-0.3-0.2-0.5-0.3s-0.3-0.1-0.4-0.2s-0.2-0.1-0.3-0.1c-0.1,0-0.2,0-0.4,0s-0.3,0.1-0.5,0.1
			s-0.4,0.1-0.7,0.2s-0.5,0.2-0.8,0.2c-0.3,0.1-0.6,0.2-0.9,0.2s-0.5,0.1-0.7,0.2s-0.4,0.1-0.6,0.1s-0.3,0.1-0.4,0.1
			c-0.1,0-0.2,0-0.4,0c-0.1,0-0.3,0-0.4,0s-0.3,0-0.4-0.1c-0.1,0-0.3-0.1-0.4-0.1c-0.1,0-0.3-0.1-0.4-0.2s-0.3-0.2-0.5-0.2
			s-0.3-0.2-0.5-0.3s-0.3-0.2-0.5-0.4c-0.2-0.2-0.5-0.4-0.7-0.6c-0.2-0.2-0.4-0.4-0.5-0.6s-0.3-0.4-0.4-0.5
			c-0.1-0.2-0.2-0.3-0.3-0.5c-0.1-0.2-0.1-0.3-0.1-0.5c0-0.2-0.1-0.3-0.1-0.5s0-0.4,0-0.5s0.1-0.4,0.1-0.6c0.1-0.2,0.1-0.4,0.2-0.6
			s0.2-0.4,0.3-0.6s0.2-0.4,0.4-0.6s0.3-0.4,0.5-0.6c0.2-0.2,0.4-0.4,0.5-0.6s0.4-0.4,0.6-0.5s0.4-0.3,0.6-0.4s0.4-0.2,0.6-0.3
			s0.4-0.2,0.6-0.2s0.4-0.1,0.5-0.1s0.3,0,0.5,0s0.3,0,0.5,0.1c0.1,0,0.3,0.1,0.5,0.2s0.4,0.2,0.6,0.3s0.4,0.3,0.6,0.4
			s0.5,0.4,0.7,0.6l0.1,0.1l0.1,0.1l0.1,0.1L244.8,124.3z"/>
		<path class="st1" d="M247.6,113.1l0.6,0.5l0.6,0.5l0.6,0.5l0.6,0.5l-0.4,0.5l-0.4,0.5l-0.4,0.5l-0.4,0.5l2.5,2.1l2.5,2.1l2.5,2.1
			l2.5,2.1l-0.7,0.8l-0.7,0.8l-0.7,0.8l-0.7,0.8l-2.5-2.1l-2.5-2.1l-2.5-2.1l-2.5-2.1l-0.4,0.5l-0.4,0.5l-0.4,0.5l-0.4,0.5l-0.6-0.5
			l-0.6-0.5l-0.6-0.5l-0.6-0.5l1.5-1.8l1.5-1.8l1.5-1.8L247.6,113.1z"/>
		<path class="st1" d="M248.2,112.4l1.2-1.4l1.2-1.4l1.2-1.4l1.2-1.4l0.6,0.5l0.6,0.5l0.6,0.5l0.6,0.5l-0.5,0.6l-0.5,0.6l-0.5,0.6
			l-0.5,0.6l0.6,0.5l0.6,0.5l0.6,0.5l0.6,0.5l0.4-0.5l0.4-0.5l0.4-0.5l0.4-0.5l0.6,0.5l0.6,0.5l0.6,0.5l0.6,0.5l-0.4,0.5l-0.4,0.5
			l-0.4,0.5l-0.4,0.5l0.7,0.6l0.7,0.6l0.7,0.6l0.7,0.6l0.5-0.6l0.5-0.6l0.5-0.6l0.5-0.6l0.6,0.5l0.6,0.5l0.6,0.5l0.6,0.5l-1.2,1.4
			l-1.2,1.4l-1.2,1.4L261,123l-3.2-2.7l-3.2-2.7l-3.2-2.7L248.2,112.4z"/>
		<path class="st1" d="M262.4,95.5l3.2,2.7l3.2,2.7l3.2,2.7l3.2,2.7l-0.6,0.7l-0.6,0.7l-0.6,0.7l-0.6,0.7l-2.1-1.8l-2.1-1.8
			l-2.1-1.8l-2.1-1.8l1.9,2.1l1.9,2.1l1.9,2.1l1.9,2.1l-0.4,0.5l-0.4,0.5l-0.4,0.5l-0.4,0.5l-2.4-1.5l-2.4-1.5l-2.4-1.5l-2.4-1.5
			l2.1,1.8l2.1,1.8l2.1,1.8l2.1,1.8l-0.6,0.7l-0.6,0.7l-0.6,0.7l-0.6,0.7l-3.2-2.7l-3.2-2.7l-3.2-2.7l-3.2-2.7l0.9-1.1l0.9-1.1
			l0.9-1.1l0.9-1.1c0.2,0.1,0.4,0.3,0.7,0.4c0.2,0.1,0.5,0.3,0.7,0.4s0.5,0.3,0.8,0.5c0.3,0.2,0.5,0.3,0.8,0.5l0.9,0.6l0.9,0.6
			l0.9,0.6l0.9,0.6l-1.3-1.4l-1.3-1.4l-1.3-1.4l-1.3-1.4l0.9-1.1l0.9-1.1l0.9-1.1L262.4,95.5z"/>
	</g>
	<g>
		<path class="st1" d="M50.9,273.8c5.5-6,11.3-11.6,17.4-16.9c3.1-2.6,6.3-5.1,9.4-7.7l9.4-7.6c6.3-5.1,12.9-9.8,19.7-14.2
			c6.8-4.4,13.9-8.4,21.2-11.9c0,0,0.1,0,0.1,0c0,0,0,0.1,0,0.1c-7,4.1-13.9,8.3-20.6,12.7c-6.8,4.4-13.4,9-19.9,13.8
			c-1.6,1.2-3.3,2.4-4.8,3.6c-1.6,1.2-3.2,2.5-4.7,3.8c-1.5,1.3-3.1,2.6-4.6,4c-1.5,1.4-3,2.7-4.5,4.1C62.9,263,57,268.4,50.9,273.8
			C51,273.9,51,273.9,50.9,273.8C50.9,273.9,50.9,273.8,50.9,273.8z"/>
	</g>
	<g>
		<path class="st1" d="M177.1,256c-2.2,8.4-5.1,16.5-8.6,24.4c-0.9,2-1.8,3.9-2.8,5.8l-1.5,2.9c-0.5,1-0.9,1.9-1.5,2.9
			c-2,3.8-3.9,7.7-6,11.5c-4.1,7.6-8.5,15-13.3,22.2c-4.8,7.2-9.9,14.2-15.3,20.9c0,0,0,0-0.1,0c0,0,0,0,0-0.1
			c4.9-7.1,9.8-14.2,14.5-21.4c4.7-7.2,9.3-14.5,13.7-21.9c2.2-3.7,4.3-7.5,6.1-11.4c1.9-3.9,3.6-7.8,5.3-11.8
			C171.1,272.2,174.2,264.2,177.1,256C177,256,177,256,177.1,256C177.1,256,177.1,256,177.1,256z"/>
	</g>
	<g>
		<path class="st1" d="M332,18.9l11.4-10.2l-10,11.6c-0.4,0.4-1,0.5-1.4,0.1S331.6,19.4,332,18.9C332,19,332,18.9,332,18.9z"/>
	</g>
	<g>
		<linearGradient id="SVGID_9_" gradientUnits="userSpaceOnUse" x1="341.7484" y1="4.662" x2="351.0724" y2="4.662">
			<stop  offset="0.3232" style="stop-color:#24AA00;stop-opacity:0.7"/>
			<stop  offset="0.8035" style="stop-color:#0B620A;stop-opacity:0.9129"/>
			<stop  offset="1" style="stop-color:#00430E"/>
		</linearGradient>
		<circle class="st10" cx="346.4" cy="4.7" r="4.7"/>
		<g>
			<path class="st1" d="M351.1,4.7c0,1.2-0.4,2.5-1.2,3.5c-0.8,1-2.2,1.6-3.5,1.5c-1.3-0.1-2.5-0.7-3.4-1.6
				c-0.9-0.9-1.4-2.1-1.5-3.4c-0.1-1.3,0.4-2.6,1.3-3.5c0.9-1,2.2-1.5,3.5-1.5c1.3,0,2.6,0.6,3.5,1.6C350.7,2.2,351.1,3.4,351.1,4.7
				z M351,4.7c0-1.2-0.6-2.4-1.5-3.1c-0.9-0.7-2-1.2-3.1-1.1c-1.1,0-2.2,0.4-3,1.2c-0.8,0.8-1.3,1.9-1.4,3c-0.1,1.2,0.4,2.4,1.2,3.2
				c0.9,0.8,2.1,1.2,3.2,1.1c1.1,0,2.2-0.5,3.1-1.2C350.4,7,351.1,5.9,351,4.7z"/>
		</g>
	</g>
	<g>
		<linearGradient id="SVGID_10_" gradientUnits="userSpaceOnUse" x1="292.5961" y1="43.6023" x2="331.5744" y2="43.6023">
			<stop  offset="0.3232" style="stop-color:#24AA00;stop-opacity:0.7"/>
			<stop  offset="0.8035" style="stop-color:#0B620A;stop-opacity:0.9129"/>
			<stop  offset="1" style="stop-color:#00430E"/>
		</linearGradient>
		<polygon class="st11" points="331.6,20.4 302.5,32.8 292.6,66.8 326,48.2 		"/>
		<path class="st1" d="M331.5,20.5L317,27l-7.1,3.2c-2.4,1.1-4.8,2.1-7.2,3.1l0.2-0.3c-0.8,2.8-1.7,5.6-2.6,8.5
			c-0.9,2.8-1.8,5.6-2.6,8.5c-0.9,2.8-1.7,5.6-2.5,8.5c-0.8,2.8-1.6,5.7-2.4,8.5l-0.4-0.3c5.5-3.2,11.1-6.4,16.6-9.5
			c2.8-1.6,5.5-3.2,8.3-4.7l8.4-4.6l-0.2,0.3c0.5-2.3,1-4.5,1.4-6.8l1.5-6.8L331.5,20.5z M331.6,20.4l-2.5,13.8l-1.3,7
			c-0.4,2.4-0.9,4.7-1.3,7.1l0,0.2l-0.2,0.1l-8.3,4.7c-2.8,1.6-5.6,3.1-8.4,4.6C304,61,298.4,64,292.7,67l-0.6,0.3l0.2-0.6
			c0.9-2.8,1.8-5.6,2.6-8.5c0.9-2.8,1.7-5.6,2.5-8.5c0.8-2.8,1.6-5.7,2.4-8.5c0.8-2.8,1.5-5.7,2.4-8.5l0.1-0.2l0.2-0.1
			c2.4-1.1,4.9-2.1,7.4-3.1l7.4-3.1L331.6,20.4z"/>
	</g>
	<path class="st1" d="M142.2,204.8l-86,6.2L11.2,256l31.3,32C60.9,248.7,95.2,221.7,142.2,204.8z"/>
	<path class="st1" d="M186.3,243.6l6.5,80.2l-34.3,47.6L125.2,347C158.2,324.6,177.6,289.3,186.3,243.6z"/>
	<g>
		
			<image style="overflow:visible;opacity:0.62;" width="96" height="132" xlink:href="8D7A23139FC4448F.png"  transform="matrix(1 0 0 1 88.3235 214.6734)">
		</image>
		<g>
			<path class="st1" d="M172.3,220.1l-8,60.2l-32.1,47.3l-31.7-24.7C144.8,256.3,144.3,255.1,172.3,220.1z"/>
		</g>
	</g>
</g>
<g id="bg" class="st12">
</g>
</svg>
