<?xml version="1.0" encoding="utf-8"?>
<!-- Generator: Adobe Illustrator 24.0.1, SVG Export Plug-In . SVG Version: 6.00 Build 0)  -->
<svg version="1.1" xmlns="http://www.w3.org/2000/svg" xmlns:xlink="http://www.w3.org/1999/xlink" x="0px" y="0px"
	 viewBox="0 0 421.5 440.2" style="enable-background:new 0 0 421.5 440.2;" xml:space="preserve">
<style type="text/css">
	.st0{fill:url(#SVGID_1_);}
	.st1{fill:#FEE4C4;}
	.st2{fill:url(#SVGID_2_);}
	.st3{opacity:0.8;fill:#FEE4C4;}
	.st4{fill:url(#SVGID_3_);}
	.st5{fill:url(#SVGID_4_);}
	.st6{fill:url(#SVGID_5_);}
	.st7{fill:url(#SVGID_6_);}
	.st8{fill:url(#SVGID_7_);}
	.st9{fill:url(#SVGID_8_);}
	.st10{fill:none;stroke:url(#SVGID_9_);stroke-width:0.75;stroke-miterlimit:10;}
	.st11{fill:none;stroke:url(#SVGID_10_);stroke-width:0.75;stroke-miterlimit:10;}
	.st12{fill:none;stroke:url(#SVGID_11_);stroke-width:0.75;stroke-miterlimit:10;}
	.st13{fill:none;stroke:url(#SVGID_12_);stroke-width:0.75;stroke-miterlimit:10;}
	.st14{fill:none;stroke:url(#SVGID_13_);stroke-width:0.75;stroke-miterlimit:10;}
	.st15{fill:none;stroke:url(#SVGID_14_);stroke-width:0.75;stroke-miterlimit:10;}
	.st16{fill:none;stroke:url(#SVGID_15_);stroke-width:0.75;stroke-miterlimit:10;}
	.st17{fill:none;stroke:url(#SVGID_16_);stroke-width:0.75;stroke-miterlimit:10;}
	.st18{fill:none;stroke:url(#SVGID_17_);stroke-width:0.75;stroke-miterlimit:10;}
	.st19{fill:none;stroke:url(#SVGID_18_);stroke-width:0.75;stroke-miterlimit:10;}
	.st20{fill:none;stroke:url(#SVGID_19_);stroke-width:0.75;stroke-miterlimit:10;}
	.st21{fill:none;stroke:url(#SVGID_20_);stroke-width:0.75;stroke-miterlimit:10;}
	.st22{fill:none;stroke:url(#SVGID_21_);stroke-width:0.75;stroke-miterlimit:10;}
	.st23{fill:none;stroke:url(#SVGID_22_);stroke-width:0.75;stroke-miterlimit:10;}
	.st24{fill:none;stroke:url(#SVGID_23_);stroke-width:0.75;stroke-miterlimit:10;}
	.st25{fill:none;stroke:url(#SVGID_24_);stroke-width:0.75;stroke-miterlimit:10;}
	.st26{fill:none;stroke:url(#SVGID_25_);stroke-width:0.75;stroke-miterlimit:10;}
	.st27{fill:none;stroke:url(#SVGID_26_);stroke-width:0.75;stroke-miterlimit:10;}
	.st28{fill:none;stroke:url(#SVGID_27_);stroke-width:0.75;stroke-miterlimit:10;}
	.st29{fill:none;stroke:url(#SVGID_28_);stroke-width:0.75;stroke-miterlimit:10;}
	.st30{fill:none;stroke:url(#SVGID_29_);stroke-width:0.75;stroke-miterlimit:10;}
	.st31{fill:none;stroke:url(#SVGID_30_);stroke-width:0.75;stroke-miterlimit:10;}
	.st32{fill:none;stroke:url(#SVGID_31_);stroke-width:0.75;stroke-miterlimit:10;}
	.st33{fill:none;stroke:url(#SVGID_32_);stroke-width:0.75;stroke-miterlimit:10;}
	.st34{fill:none;stroke:url(#SVGID_33_);stroke-width:0.75;stroke-miterlimit:10;}
	.st35{fill:none;stroke:url(#SVGID_34_);stroke-width:0.75;stroke-miterlimit:10;}
	.st36{fill:none;stroke:url(#SVGID_35_);stroke-width:0.75;stroke-miterlimit:10;}
	.st37{fill:none;stroke:url(#SVGID_36_);stroke-width:0.75;stroke-miterlimit:10;}
	.st38{fill:none;stroke:url(#SVGID_37_);stroke-width:0.75;stroke-miterlimit:10;}
	.st39{fill:none;stroke:url(#SVGID_38_);stroke-width:0.75;stroke-miterlimit:10;}
	.st40{fill:none;stroke:url(#SVGID_39_);stroke-width:0.75;stroke-miterlimit:10;}
	.st41{fill:none;stroke:url(#SVGID_40_);stroke-width:0.75;stroke-miterlimit:10;}
	.st42{fill:none;stroke:url(#SVGID_41_);stroke-width:0.75;stroke-miterlimit:10;}
	.st43{fill:none;stroke:url(#SVGID_42_);stroke-width:0.75;stroke-miterlimit:10;}
	.st44{fill:none;stroke:url(#SVGID_43_);stroke-width:0.75;stroke-miterlimit:10;}
	.st45{fill:none;stroke:url(#SVGID_44_);stroke-width:0.75;stroke-miterlimit:10;}
	.st46{fill:none;stroke:url(#SVGID_45_);stroke-width:0.75;stroke-miterlimit:10;}
	.st47{fill:none;stroke:url(#SVGID_46_);stroke-width:0.75;stroke-miterlimit:10;}
	.st48{fill:none;stroke:url(#SVGID_47_);stroke-width:0.75;stroke-miterlimit:10;}
	.st49{fill:none;stroke:url(#SVGID_48_);stroke-width:0.75;stroke-miterlimit:10;}
	.st50{fill:url(#SVGID_49_);}
	.st51{display:none;}
</style>
<g id="Layer_1">
	<g>
		<linearGradient id="SVGID_1_" gradientUnits="userSpaceOnUse" x1="138.4768" y1="426.5627" x2="163.8417" y2="314.2702">
			<stop  offset="0.3232" style="stop-color:#24AA00;stop-opacity:0.7"/>
			<stop  offset="0.8035" style="stop-color:#0B620A;stop-opacity:0.9129"/>
			<stop  offset="1" style="stop-color:#00430E"/>
		</linearGradient>
		<path class="st0" d="M141.9,414.2l20.8-42.1L131.2,416l27.9-51l-41.4,56.9l35.2-59.9l-33.1,46.8l29-49.8l-32.4,40.3l22.8-36.2
			l-31,40.9l24.9-42.7l-29.7,42.7l56.8-85.2c26.1-7.2,34.2,6.8,37,26.5L141.9,414.2z"/>
		<path class="st1" d="M141.9,414.2l20.7-42.2l0.3,0.2l-31.5,43.9l-0.4-0.3l27.9-51l0.5,0.3L118,422l-0.5-0.3l35.2-59.8l0.3,0.2
			l-33.2,46.8l-0.2-0.1l28.9-49.8l0.3,0.2l-32.4,40.4l-0.4-0.3l22.7-36.2l0.5,0.3l-31,40.9l-0.6-0.4l24.9-42.7l0.6,0.4l-29.7,42.7
			l-0.6-0.4l28.4-42.6l28.5-42.6l0.1-0.1l0.1,0c4.4-1.2,8.9-2,13.5-1.9c4.6,0.1,9.2,1.4,12.9,4.2c3.6,2.8,6.1,6.9,7.7,11.2
			c1.6,4.3,2.5,8.8,3.2,13.2l0,0.1l-0.1,0.1L141.9,414.2z M141.9,414.1l55-68.9l0,0.2c-0.7-4.5-1.6-8.9-3.2-13.1
			c-1.6-4.2-4-8.2-7.6-10.9c-3.6-2.7-8.1-4-12.6-4.1c-4.5-0.1-9,0.7-13.3,1.9l0.2-0.1L132,361.7l-28.4,42.6l-0.6-0.4l29.7-42.7
			l0.6,0.4l-24.9,42.7l-0.6-0.4l31.1-40.9l0.5,0.3l-22.8,36.1l-0.4-0.3l32.5-40.3l0.3,0.2l-29,49.8l-0.2-0.1l33-46.9l0.3,0.2
			L118,422l-0.5-0.3l41.3-56.9l0.5,0.3l-28,51l-0.4-0.3l31.6-43.8l0.3,0.2L141.9,414.1z"/>
	</g>
	<g>
		<linearGradient id="SVGID_2_" gradientUnits="userSpaceOnUse" x1="79.306" y1="357.4266" x2="149.274" y2="310.5048">
			<stop  offset="0.3232" style="stop-color:#24AA00;stop-opacity:0.7"/>
			<stop  offset="0.8035" style="stop-color:#0B620A;stop-opacity:0.9129"/>
			<stop  offset="1" style="stop-color:#00430E"/>
		</linearGradient>
		<path class="st2" d="M70.4,364.3l32.8-36l-30.5,45.7l38.7-45.9l-39.4,59.7l44.6-55.8L84,380.3l37.2-46.2l-26.7,44.9l26.4-35
			l-27.8,44l31.9-39.6l-30,43.7l59.8-72.9c-3-24.9-18.7-33.3-38.7-31.2L70.4,364.3z"/>
		<g>
			<path class="st1" d="M70.5,364.2l32.7-36.1l0.3,0.2L73,374.1l-0.4-0.3l38.7-45.9l0.5,0.4l-39.4,59.7l-0.4-0.3l44.7-55.8l0.3,0.2
				l-32.8,48.3l-0.2-0.1l37.2-46.2l0.3,0.2L94.7,379l-0.4-0.3l26.3-35l0.5,0.3l-27.8,44l-0.6-0.4l31.9-39.7l0.6,0.4l-30,43.7
				l-0.6-0.4l59.8-72.9l-0.1,0.2c-0.6-4.6-1.7-9.2-3.5-13.5c-1.9-4.3-4.6-8.2-8.2-11.1c-3.6-3-8-4.9-12.6-5.8c-4.6-0.9-9.3-1-14-0.5
				l0.2-0.1L70.5,364.2z M70.4,364.3l45.4-76.6l0.1-0.1l0.1,0c4.7-0.5,9.5-0.5,14.1,0.5c4.6,0.9,9.1,2.9,12.8,5.9
				c3.7,3,6.5,7,8.4,11.3c1.9,4.3,3,9,3.6,13.7l0,0.1l-0.1,0.1l-59.7,73l-0.6-0.4l30-43.7l0.6,0.4l-31.9,39.6l-0.6-0.4l27.8-44
				l0.5,0.3l-26.4,34.9l-0.4-0.3l26.8-44.8l0.3,0.2l-37.2,46.2l-0.2-0.1l32.7-48.4l0.3,0.2l-44.5,55.9l-0.4-0.3l39.3-59.7l0.5,0.4
				L73,374.1l-0.4-0.3l30.5-45.7l0.3,0.2L70.4,364.3z"/>
		</g>
	</g>
	<g>
		<path class="st1" d="M400.9,20.3c0.8-0.3,1.8,0.2,1.9,1.1c0.1,0.4-0.1,0.8-0.2,1.1l-0.3,1.1l-1.1,4.3c-0.7,2.9-1.5,5.8-2.3,8.6
			c-1.6,5.7-3.3,11.4-5.2,17c-1.9,5.6-3.9,11.2-6.1,16.8c-2.2,5.5-4.5,11-7.1,16.3c-2.5,5.4-5.4,10.6-8.3,15.8
			c-0.7,1.3-1.6,2.5-2.3,3.8c-0.8,1.3-1.5,2.5-2.4,3.8c-1.7,2.4-3.4,4.9-5.1,7.3l-5.4,7.1l-5.6,6.9c-1.9,2.3-3.8,4.6-5.7,6.8
			l-2.9,3.4l-2.9,3.4c-15.6,18-31.8,35.4-47.4,53.3c-7.8,8.9-15.5,18-22.7,27.4c-1.8,2.4-3.6,4.7-5.3,7.2c-1.7,2.4-3.4,4.8-4.9,7.4
			l-2.2,3.8c0,0.1-0.1,0.5-0.2,0.9l-0.2,1.1l-0.4,2.2c-0.6,2.9-1.1,5.9-1.7,8.8c-2.6,11.6-6.3,23-11.2,34
			c-4.8,10.9-10.9,21.3-18.2,30.8c-3.6,4.8-7.6,9.2-11.8,13.5c-4.2,4.2-8.8,8.1-13.7,11.6l-0.5,0.3c-0.3,0.2-0.6,0.3-0.9,0.3
			c-0.6,0.1-1.3-0.1-1.8-0.6c-0.2-0.2-0.4-0.5-0.5-0.8c-0.1-0.2-0.1-0.3-0.1-0.5l0-0.3l-0.1-1.1c-0.2-1.5-0.4-2.9-0.7-4.3
			c-0.6-2.9-1.4-5.7-2.5-8.3c-0.6-1.3-1.2-2.6-2-3.8c-0.8-1.2-1.7-2.3-2.6-3.3c-2-2-4.4-3.5-7.1-4.4c-2.7-0.9-5.6-1-8.4-0.8
			c-2.9,0.2-5.7,0.9-8.5,1.8l-2.1,0.7l-0.3,0.1c-0.2,0-0.3,0.1-0.5,0.1c-0.3,0-0.7,0-1-0.2c-0.6-0.3-1.1-0.8-1.3-1.4
			c-0.2-0.6-0.1-1.4,0.3-1.9l0.1-0.2l0.1-0.1l0.2-0.2l0.4-0.4l1.4-1.7l5.7-6.8l23-27.2l46-54.5l1.8,1.6l-49.4,54.7l-24.7,27.4
			l-6.2,6.8l-1.5,1.7l-0.4,0.4c-0.2,0.2-0.5,0.5-0.9,0.7c-0.8,0.4-1.7,0.3-2.4-0.1c-0.7-0.4-1.3-1.1-1.4-1.9c-0.1-0.5,0-0.5,0-0.8
			l0-0.6c0-0.7-0.1-1.5-0.1-2.2c-0.5-5.9-2.2-11.8-5.4-16.7c-1.6-2.4-3.6-4.6-5.9-6.2c-1.2-0.8-2.4-1.5-3.7-2.1
			c-1.3-0.5-2.7-1-4.1-1.2c-2.8-0.5-5.8-0.4-8.7,0.1c-0.7,0.1-1.4,0.2-2.2,0.4c-0.7,0.2-1.4,0.3-2.1,0.6c-0.7,0.2-1.4,0.4-2.1,0.7
			l-1,0.4l-0.6,0.2c-0.4,0.1-0.8,0.2-1.3,0.1c-0.9-0.1-1.6-0.7-2-1.4c-0.4-0.7-0.5-1.7-0.1-2.5c0-0.1,0.1-0.2,0.1-0.2l0.1-0.1
			l0.1-0.3l0.3-0.5l0.6-1l2.3-4c0.7-1.4,1.6-2.7,2.4-4l2.5-3.9c0.8-1.3,1.7-2.6,2.6-3.9l2.6-3.8c1.8-2.5,3.7-4.9,5.6-7.4
			c7.7-9.7,16.4-18.6,26-26.5c9.6-7.9,20-14.8,31.2-20.1c0.7-0.3,1.4-0.7,2.1-1l2.2-0.9l4.3-1.8c1.4-0.6,2.9-1,4.4-1.5
			c1.5-0.5,2.9-1,4.4-1.4l4.5-1.2l2.3-0.6l0.1,0c0,0,0,0,0,0c0,0,0,0,0,0c0,0,0,0,0,0c0,0,0,0,0-0.1l0.7-0.9l5.5-7.4l21.9-29.6
			c14.7-19.7,29.5-39.3,44.5-58.8c7.5-9.7,15.1-19.4,22.9-28.9c3.9-4.8,7.8-9.5,12.4-13.7l3.5-3c1.2-1,2.4-1.9,3.7-2.8
			c2.4-1.9,5-3.6,7.5-5.3c10.3-6.8,21.2-12.6,32.2-17.9C378.2,29.6,389.5,24.7,400.9,20.3z M401.1,20.6
			c-11.4,4.5-22.7,9.4-33.7,14.8c-11,5.4-21.8,11.3-32,18.1c-2.5,1.8-5.1,3.4-7.4,5.4c-1.2,1-2.4,1.9-3.6,2.8l-3.4,3
			c-4.4,4.2-8.3,8.9-12.1,13.7c-7.7,9.6-15.1,19.4-22.5,29.2c-14.8,19.6-29.3,39.4-43.8,59.3l-21.7,29.8l-5.4,7.5l-0.7,0.9
			c0,0-0.2,0.2-0.3,0.4c-0.1,0.1-0.3,0.3-0.5,0.4c-0.2,0.1-0.4,0.2-0.6,0.3c-0.1,0-0.2,0.1-0.3,0.1l-0.1,0l-2.2,0.6l-4.4,1.2
			c-1.5,0.4-2.9,1-4.3,1.4c-1.4,0.5-2.9,0.9-4.3,1.5l-4.2,1.8l-2.1,0.9c-0.7,0.3-1.4,0.7-2,1c-11,5.2-21.2,12-30.6,19.7
			c-9.4,7.8-17.9,16.5-25.5,26.1c-1.8,2.4-3.7,4.8-5.5,7.3l-2.6,3.8c-0.9,1.3-1.8,2.5-2.6,3.8l-2.4,3.9c-0.8,1.3-1.6,2.6-2.4,3.9
			l-2.2,4l-1.1,1.9c0-0.1,0-0.2,0-0.2c0,0-0.1-0.1-0.2-0.1c0,0-0.1,0-0.1,0c0,0,0,0,0.1,0l0.1-0.1l0.3-0.1l1.1-0.4
			c0.7-0.3,1.5-0.5,2.3-0.7c0.8-0.2,1.5-0.4,2.3-0.6c0.8-0.2,1.6-0.3,2.4-0.5c3.2-0.5,6.4-0.6,9.7,0c1.6,0.3,3.2,0.8,4.7,1.4
			c1.5,0.7,3,1.4,4.3,2.4c2.7,1.9,5,4.3,6.7,7c3.5,5.4,5.3,11.7,5.8,18c0.1,0.8,0.1,1.6,0.1,2.4l0,1c0,0-0.1-0.1-0.1-0.1
			c0,0-0.1,0-0.2,0c0,0-0.1,0.1,0,0l0.4-0.4l1.5-1.7l6.2-6.8l24.8-27.3l49.6-54.6l1.8,1.6l-46.2,54.3l-23.1,27.2l-5.8,6.8l-1.4,1.7
			l-0.4,0.4l-0.2,0.2l-0.1,0.1l0,0c-0.1,0.1,0,0.1,0,0.2c0,0.1,0.1,0.2,0.2,0.2c0,0,0,0,0.1,0c0,0,0.1,0,0.3-0.1l2.1-0.7
			c2.9-0.9,5.9-1.6,8.9-1.8c3-0.2,6.2-0.1,9.2,0.9c3,0.9,5.7,2.6,7.9,4.9c1.1,1.1,2,2.4,2.9,3.7c0.8,1.3,1.5,2.7,2.1,4.1
			c1.2,2.8,2,5.7,2.6,8.7c0.3,1.5,0.5,3,0.7,4.5l0.1,1.1c0,0.1,0,0.2,0,0.2c0,0,0,0.1,0,0.1c0,0,0,0.1,0.1,0.1
			c0.1,0.1,0.2,0.1,0.3,0.1c0,0,0.1,0,0.1-0.1l0.5-0.3c4.8-3.3,9.3-7.2,13.5-11.3c4.2-4.2,8.1-8.5,11.7-13.3
			c7.2-9.3,13.3-19.6,18.1-30.4c4.8-10.8,8.5-22.1,11.2-33.6c0.6-2.9,1.1-5.8,1.7-8.7l0.4-2.2l0.2-1.1c0.1-0.4,0.1-0.7,0.3-1.3
			l2.3-3.9c1.5-2.6,3.3-5,4.9-7.5c1.7-2.5,3.5-4.8,5.3-7.2c7.3-9.4,15.1-18.4,22.9-27.3c15.8-17.8,32.1-35.1,47.7-53l2.9-3.3
			l2.9-3.4c1.9-2.3,3.9-4.5,5.8-6.8l5.6-6.9l5.4-7.1c1.8-2.4,3.4-4.8,5.2-7.3c0.9-1.2,1.6-2.5,2.4-3.7c0.8-1.3,1.6-2.5,2.3-3.8
			c3-5.1,5.8-10.3,8.4-15.7c2.6-5.3,4.9-10.8,7.1-16.3c2.2-5.5,4.2-11.1,6.1-16.7c1.9-5.6,3.6-11.3,5.2-17c0.8-2.9,1.6-5.7,2.3-8.6
			l1.1-4.3l0.3-1.1c0.1-0.4,0.2-0.7,0.2-1C402.5,20.7,401.7,20.3,401.1,20.6z"/>
	</g>
	<path class="st3" d="M121.4,273.9c18.8-10,50.4,5.7,43.4,34l-12.4,13.7c-5.3-21.4-18.9-31.7-41.1-30.3L121.4,273.9z"/>
	<path class="st3" d="M156.8,322.8l17.1-20.2c16.8-1.5,29.2,10.3,38.1,33.1l-14.7,11.8C193.1,324.9,179.2,317.4,156.8,322.8z"/>
	<g>
		<g>
			<linearGradient id="SVGID_3_" gradientUnits="userSpaceOnUse" x1="290.1353" y1="117.0439" x2="303.2941" y2="117.0439">
				<stop  offset="0.3232" style="stop-color:#24AA00;stop-opacity:0.7"/>
				<stop  offset="0.8035" style="stop-color:#0B620A;stop-opacity:0.9129"/>
				<stop  offset="1" style="stop-color:#00430E"/>
			</linearGradient>
			<circle class="st4" cx="296.7" cy="117" r="6.6"/>
			<path class="st1" d="M303.3,117c0,1.7-0.6,3.5-1.8,4.8c-1.2,1.4-3,2.1-4.8,2.1c-3.7-0.1-6.7-3.3-6.8-6.9
				c-0.1-1.8,0.6-3.6,1.9-4.9c1.3-1.3,3.1-2.1,4.9-2.1c1.8,0,3.6,0.8,4.8,2.2C302.7,113.6,303.3,115.3,303.3,117z M303.3,117
				c0-1.7-0.8-3.4-2.1-4.5c-1.2-1.1-2.9-1.7-4.5-1.7c-1.6,0-3.2,0.6-4.4,1.8c-1.2,1.1-1.9,2.7-2,4.4c-0.1,1.7,0.6,3.4,1.8,4.6
				c1.2,1.2,2.9,1.8,4.6,1.7c1.6,0,3.2-0.7,4.5-1.8C302.4,120.4,303.3,118.8,303.3,117z"/>
		</g>
		<g>
			<linearGradient id="SVGID_4_" gradientUnits="userSpaceOnUse" x1="317.214" y1="86.3288" x2="330.3728" y2="86.3288">
				<stop  offset="0.3232" style="stop-color:#24AA00;stop-opacity:0.7"/>
				<stop  offset="0.8035" style="stop-color:#0B620A;stop-opacity:0.9129"/>
				<stop  offset="1" style="stop-color:#00430E"/>
			</linearGradient>
			<circle class="st5" cx="323.8" cy="86.3" r="6.6"/>
			<path class="st1" d="M330.4,86.3c0,1.7-0.6,3.5-1.8,4.8c-1.2,1.4-3,2.1-4.8,2.1c-3.7-0.1-6.7-3.3-6.8-6.9
				c-0.1-1.8,0.6-3.6,1.9-4.9c1.3-1.3,3.1-2.1,4.9-2.1c1.8,0,3.6,0.8,4.8,2.2C329.8,82.8,330.4,84.6,330.4,86.3z M330.3,86.3
				c0-1.7-0.8-3.4-2.1-4.5c-1.2-1.1-2.9-1.7-4.5-1.7c-1.6,0-3.2,0.6-4.4,1.8c-1.2,1.1-1.9,2.7-2,4.4c-0.1,1.7,0.6,3.4,1.8,4.6
				c1.2,1.2,2.9,1.8,4.6,1.7c1.6,0,3.2-0.7,4.5-1.8C329.5,89.7,330.4,88.1,330.3,86.3z"/>
		</g>
		<g>
			<linearGradient id="SVGID_5_" gradientUnits="userSpaceOnUse" x1="263.8177" y1="147.759" x2="276.9765" y2="147.759">
				<stop  offset="0.3232" style="stop-color:#24AA00;stop-opacity:0.7"/>
				<stop  offset="0.8035" style="stop-color:#0B620A;stop-opacity:0.9129"/>
				<stop  offset="1" style="stop-color:#00430E"/>
			</linearGradient>
			<circle class="st6" cx="270.4" cy="147.8" r="6.6"/>
			<path class="st1" d="M277,147.8c0,1.7-0.6,3.5-1.8,4.8c-1.2,1.4-3,2.1-4.8,2.1c-3.7-0.1-6.7-3.3-6.8-6.9
				c-0.1-1.8,0.6-3.6,1.9-4.9c1.3-1.3,3.1-2.1,4.9-2.1c1.8,0,3.6,0.8,4.8,2.2C276.4,144.3,277,146,277,147.8z M276.9,147.8
				c0-1.7-0.8-3.4-2.1-4.5c-1.2-1.1-2.9-1.7-4.5-1.7c-1.6,0-3.2,0.6-4.4,1.8c-1.2,1.1-1.9,2.7-2,4.4c-0.1,1.7,0.6,3.4,1.8,4.6
				c1.2,1.2,2.9,1.8,4.6,1.7c1.6,0,3.2-0.7,4.5-1.8C276.1,151.1,277,149.5,276.9,147.8z"/>
		</g>
		<g>
			<linearGradient id="SVGID_6_" gradientUnits="userSpaceOnUse" x1="303.2941" y1="101.6864" x2="316.4529" y2="101.6864">
				<stop  offset="0.3232" style="stop-color:#24AA00;stop-opacity:0.7"/>
				<stop  offset="0.8035" style="stop-color:#0B620A;stop-opacity:0.9129"/>
				<stop  offset="1" style="stop-color:#00430E"/>
			</linearGradient>
			<circle class="st7" cx="309.9" cy="101.7" r="6.6"/>
			<path class="st1" d="M316.5,101.7c0,1.7-0.6,3.5-1.8,4.8c-1.2,1.4-3,2.1-4.8,2.1c-3.7-0.1-6.7-3.3-6.8-6.9
				c-0.1-1.8,0.6-3.6,1.9-4.9c1.3-1.3,3.1-2.1,4.9-2.1c1.8,0,3.6,0.8,4.8,2.2C315.9,98.2,316.5,100,316.5,101.7z M316.4,101.7
				c0-1.7-0.8-3.4-2.1-4.5c-1.2-1.1-2.9-1.7-4.5-1.7c-1.6,0-3.2,0.6-4.4,1.8c-1.2,1.1-1.9,2.7-2,4.4c-0.1,1.7,0.6,3.4,1.8,4.6
				c1.2,1.2,2.9,1.8,4.6,1.7c1.6,0,3.2-0.7,4.5-1.8C315.6,105.1,316.4,103.4,316.4,101.7z"/>
		</g>
		<g>
			<linearGradient id="SVGID_7_" gradientUnits="userSpaceOnUse" x1="276.9765" y1="132.4015" x2="290.1353" y2="132.4015">
				<stop  offset="0.3232" style="stop-color:#24AA00;stop-opacity:0.7"/>
				<stop  offset="0.8035" style="stop-color:#0B620A;stop-opacity:0.9129"/>
				<stop  offset="1" style="stop-color:#00430E"/>
			</linearGradient>
			<circle class="st8" cx="283.6" cy="132.4" r="6.6"/>
			<path class="st1" d="M290.2,132.4c0,1.7-0.6,3.5-1.8,4.8c-1.2,1.4-3,2.1-4.8,2.1c-3.7-0.1-6.7-3.3-6.8-6.9
				c-0.1-1.8,0.6-3.6,1.9-4.9c1.3-1.3,3.1-2.1,4.9-2.1c1.8,0,3.6,0.8,4.8,2.2C289.6,128.9,290.2,130.7,290.2,132.4z M290.1,132.4
				c0-1.7-0.8-3.4-2.1-4.5c-1.2-1.1-2.9-1.7-4.5-1.7c-1.6,0-3.2,0.6-4.4,1.8c-1.2,1.1-1.9,2.7-2,4.4c-0.1,1.7,0.6,3.4,1.8,4.6
				c1.2,1.2,2.9,1.8,4.6,1.7c1.6,0,3.2-0.7,4.5-1.8C289.3,135.8,290.1,134.1,290.1,132.4z"/>
		</g>
		<g>
			<linearGradient id="SVGID_8_" gradientUnits="userSpaceOnUse" x1="254.4484" y1="163.1165" x2="267.6072" y2="163.1165">
				<stop  offset="0.3232" style="stop-color:#24AA00;stop-opacity:0.7"/>
				<stop  offset="0.8035" style="stop-color:#0B620A;stop-opacity:0.9129"/>
				<stop  offset="1" style="stop-color:#00430E"/>
			</linearGradient>
			<circle class="st9" cx="261" cy="163.1" r="6.6"/>
			<path class="st1" d="M267.6,163.1c0,1.7-0.6,3.5-1.8,4.8c-1.2,1.4-3,2.1-4.8,2.1c-3.7-0.1-6.7-3.3-6.8-6.9
				c-0.1-1.8,0.6-3.6,1.9-4.9c1.3-1.3,3.1-2.1,4.9-2.1c1.8,0,3.6,0.8,4.8,2.2C267.1,159.6,267.6,161.4,267.6,163.1z M267.6,163.1
				c0-1.7-0.8-3.4-2.1-4.5c-1.2-1.1-2.9-1.7-4.5-1.7c-1.6,0-3.2,0.6-4.4,1.8c-1.2,1.1-1.9,2.7-2,4.4c-0.1,1.7,0.6,3.4,1.8,4.6
				c1.2,1.2,2.9,1.8,4.6,1.7c1.6,0,3.2-0.7,4.5-1.8C266.8,166.5,267.6,164.8,267.6,163.1z"/>
		</g>
	</g>
	<g>
		<path class="st1" d="M268.6,172.2l1.2-1.4l1.2-1.4l1.2-1.4l1.2-1.4l0.6,0.5l0.6,0.5l0.6,0.5l0.6,0.5l-0.5,0.6l-0.5,0.6l-0.5,0.6
			l-0.5,0.6l0.6,0.5l0.6,0.5l0.6,0.5l0.6,0.5l0.4-0.5l0.4-0.5l0.4-0.5l0.4-0.5l0.6,0.5l0.6,0.5l0.6,0.5l0.6,0.5l-0.4,0.5l-0.4,0.5
			l-0.4,0.5l-0.4,0.5l1.3,1.1l1.3,1.1l1.3,1.1l1.3,1.1l-0.7,0.8l-0.7,0.8L282,182l-0.7,0.8l-3.2-2.7l-3.2-2.7l-3.2-2.7L268.6,172.2z
			"/>
		<path class="st1" d="M274,165.8l1.2-1.4l1.2-1.4l1.2-1.4l1.2-1.4l0.6,0.5l0.6,0.5l0.6,0.5l0.6,0.5l-0.5,0.6l-0.5,0.6l-0.5,0.6
			l-0.5,0.6l0.6,0.5l0.6,0.5l0.6,0.5l0.6,0.5l0.4-0.5l0.4-0.5l0.4-0.5l0.4-0.5l0.6,0.5l0.6,0.5l0.6,0.5l0.6,0.5l-0.4,0.5l-0.4,0.5
			l-0.4,0.5l-0.4,0.5l0.7,0.6l0.7,0.6l0.7,0.6l0.7,0.6l0.5-0.6l0.5-0.6l0.5-0.6l0.5-0.6l0.6,0.5l0.6,0.5l0.6,0.5l0.6,0.5l-1.2,1.4
			l-1.2,1.4l-1.2,1.4l-1.2,1.4l-3.2-2.7l-3.2-2.7l-3.2-2.7L274,165.8z"/>
		<path class="st1" d="M289.3,155.3l-0.6,0.8l-0.6,0.8l-0.6,0.8l-0.6,0.8l-0.2-0.2l-0.2-0.2l-0.2-0.2l-0.2-0.2
			c-0.1-0.1-0.2-0.2-0.3-0.2c-0.1-0.1-0.2-0.1-0.3-0.2s-0.1-0.1-0.2-0.1s-0.1,0-0.2,0c0,0-0.1,0-0.1,0c0,0-0.1,0-0.1,0
			s-0.1,0-0.1,0.1c0,0-0.1,0.1-0.1,0.1c0,0-0.1,0.1-0.1,0.2c0,0.1,0,0.1-0.1,0.2s0,0.1,0,0.2c0,0.1,0,0.1,0,0.2c0,0.1,0,0.1,0.1,0.2
			c0,0.1,0.1,0.1,0.1,0.2s0.1,0.1,0.2,0.2c0.1,0.1,0.1,0.1,0.2,0.2c0.1,0.1,0.2,0.2,0.3,0.2c0.1,0.1,0.2,0.1,0.3,0.2
			s0.2,0.1,0.3,0.1c0.1,0,0.2,0.1,0.2,0.1c0.1,0,0.2,0,0.3,0c0.1,0,0.2,0,0.4,0s0.3-0.1,0.4-0.1c0.2,0,0.3-0.1,0.5-0.2
			c0.5-0.2,1-0.3,1.5-0.5c0.5-0.1,0.9-0.2,1.2-0.3s0.7-0.1,1-0.2c0.3,0,0.6,0,0.8,0c0.2,0,0.5,0.1,0.7,0.2c0.2,0.1,0.5,0.2,0.8,0.3
			s0.5,0.3,0.8,0.5c0.3,0.2,0.6,0.4,0.9,0.7c0.2,0.2,0.4,0.4,0.6,0.6c0.2,0.2,0.4,0.4,0.5,0.5s0.3,0.3,0.4,0.5
			c0.1,0.2,0.2,0.3,0.2,0.4c0.1,0.1,0.1,0.3,0.1,0.5c0,0.2,0.1,0.3,0.1,0.5s0,0.4,0,0.6c0,0.2-0.1,0.4-0.1,0.6
			c-0.1,0.2-0.1,0.4-0.2,0.6c-0.1,0.2-0.2,0.4-0.3,0.6s-0.2,0.4-0.4,0.6s-0.3,0.4-0.5,0.6c-0.2,0.2-0.4,0.4-0.6,0.6
			s-0.4,0.4-0.6,0.5s-0.4,0.3-0.6,0.4c-0.2,0.1-0.4,0.2-0.6,0.3c-0.2,0.1-0.4,0.2-0.6,0.2s-0.4,0.1-0.6,0.1s-0.4,0-0.6,0
			s-0.4-0.1-0.5-0.1c-0.2-0.1-0.3-0.1-0.5-0.2s-0.4-0.2-0.6-0.3s-0.4-0.3-0.6-0.4c-0.2-0.2-0.5-0.3-0.7-0.5l-0.2-0.2l-0.2-0.2
			l-0.2-0.2l-0.2-0.2l0.6-0.8l0.6-0.8l0.6-0.8l0.6-0.8l0.4,0.3l0.4,0.3l0.4,0.3l0.4,0.3c0.1,0.1,0.2,0.2,0.3,0.3
			c0.1,0.1,0.2,0.1,0.3,0.2s0.2,0.1,0.2,0.1c0.1,0,0.1,0,0.2,0.1c0.1,0,0.1,0,0.2,0s0.1,0,0.1,0s0.1-0.1,0.1-0.1s0.1-0.1,0.1-0.1
			c0-0.1,0.1-0.1,0.1-0.2c0-0.1,0.1-0.1,0.1-0.2s0-0.1,0-0.2c0-0.1,0-0.1,0-0.2c0-0.1,0-0.1-0.1-0.2s-0.1-0.1-0.1-0.2
			s-0.1-0.1-0.2-0.2s-0.1-0.1-0.2-0.2c-0.2-0.2-0.4-0.3-0.5-0.4s-0.3-0.2-0.5-0.3s-0.3-0.1-0.4-0.2s-0.2-0.1-0.3-0.1
			c-0.1,0-0.2,0-0.4,0s-0.3,0.1-0.5,0.1s-0.4,0.1-0.7,0.2c-0.3,0.1-0.5,0.2-0.8,0.2c-0.3,0.1-0.6,0.2-0.9,0.2s-0.5,0.1-0.7,0.2
			s-0.4,0.1-0.6,0.1s-0.3,0.1-0.4,0.1c-0.1,0-0.2,0-0.4,0c-0.1,0-0.3,0-0.4,0s-0.3,0-0.4-0.1c-0.1,0-0.3-0.1-0.4-0.1
			c-0.1,0-0.3-0.1-0.4-0.2s-0.3-0.2-0.5-0.2s-0.3-0.2-0.5-0.3c-0.2-0.1-0.3-0.2-0.5-0.4c-0.2-0.2-0.5-0.4-0.7-0.6
			c-0.2-0.2-0.4-0.4-0.5-0.6s-0.3-0.4-0.4-0.5c-0.1-0.2-0.2-0.3-0.3-0.5c-0.1-0.2-0.1-0.3-0.1-0.5c0-0.2-0.1-0.3-0.1-0.5
			s0-0.4,0-0.5c0-0.2,0.1-0.4,0.1-0.6c0.1-0.2,0.1-0.4,0.2-0.6c0.1-0.2,0.2-0.4,0.3-0.6s0.2-0.4,0.4-0.6c0.1-0.2,0.3-0.4,0.5-0.6
			c0.2-0.2,0.4-0.4,0.5-0.6c0.2-0.2,0.4-0.4,0.6-0.5s0.4-0.3,0.6-0.4c0.2-0.1,0.4-0.2,0.6-0.3c0.2-0.1,0.4-0.2,0.6-0.2
			c0.2-0.1,0.4-0.1,0.5-0.1s0.3,0,0.5,0c0.2,0,0.3,0,0.5,0.1c0.1,0,0.3,0.1,0.5,0.2s0.4,0.2,0.6,0.3s0.4,0.3,0.6,0.4
			c0.2,0.2,0.5,0.4,0.7,0.6l0.1,0.1l0.1,0.1l0.1,0.1L289.3,155.3z"/>
		<path class="st1" d="M286.5,150.8l1.2-1.4l1.2-1.4l1.2-1.4l1.2-1.4l0.6,0.5l0.6,0.5l0.6,0.5l0.6,0.5l-0.5,0.6l-0.5,0.6l-0.5,0.6
			l-0.5,0.6l0.6,0.5l0.6,0.5l0.6,0.5l0.6,0.5l0.4-0.5l0.4-0.5l0.4-0.5l0.4-0.5l0.6,0.5l0.6,0.5l0.6,0.5l0.6,0.5l-0.4,0.5l-0.4,0.5
			l-0.4,0.5l-0.4,0.5l0.7,0.6l0.7,0.6l0.7,0.6l0.7,0.6l0.5-0.6l0.5-0.6l0.5-0.6l0.5-0.6l0.6,0.5l0.6,0.5l0.6,0.5l0.6,0.5l-1.2,1.4
			l-1.2,1.4l-1.2,1.4l-1.2,1.4l-3.2-2.7l-3.2-2.7l-3.2-2.7L286.5,150.8z"/>
		<path class="st1" d="M301.9,140.3l-0.6,0.8l-0.6,0.8l-0.6,0.8l-0.6,0.8l-0.2-0.2l-0.2-0.2l-0.2-0.2l-0.2-0.2
			c-0.1-0.1-0.2-0.2-0.3-0.2c-0.1-0.1-0.2-0.1-0.3-0.2s-0.1-0.1-0.2-0.1c-0.1,0-0.1,0-0.2,0c0,0-0.1,0-0.1,0c0,0-0.1,0-0.1,0
			s-0.1,0-0.1,0.1c0,0-0.1,0.1-0.1,0.1c0,0-0.1,0.1-0.1,0.2s0,0.1-0.1,0.2s0,0.1,0,0.2c0,0.1,0,0.1,0,0.2c0,0.1,0,0.1,0.1,0.2
			c0,0.1,0.1,0.1,0.1,0.2s0.1,0.1,0.2,0.2c0.1,0.1,0.1,0.1,0.2,0.2c0.1,0.1,0.2,0.2,0.3,0.2s0.2,0.1,0.3,0.2s0.2,0.1,0.3,0.1
			c0.1,0,0.2,0.1,0.2,0.1c0.1,0,0.2,0,0.3,0s0.2,0,0.4,0s0.3-0.1,0.4-0.1c0.2,0,0.3-0.1,0.5-0.2c0.5-0.2,1-0.3,1.5-0.5
			c0.5-0.1,0.9-0.2,1.2-0.3s0.7-0.1,1-0.2c0.3,0,0.6,0,0.8,0c0.2,0,0.5,0.1,0.7,0.2c0.2,0.1,0.5,0.2,0.8,0.3s0.5,0.3,0.8,0.5
			c0.3,0.2,0.6,0.4,0.9,0.7c0.2,0.2,0.4,0.4,0.6,0.6c0.2,0.2,0.4,0.4,0.5,0.5s0.3,0.3,0.4,0.5c0.1,0.2,0.2,0.3,0.2,0.4
			c0.1,0.1,0.1,0.3,0.1,0.5c0,0.2,0.1,0.3,0.1,0.5s0,0.4,0,0.6c0,0.2-0.1,0.4-0.1,0.6c-0.1,0.2-0.1,0.4-0.2,0.6
			c-0.1,0.2-0.2,0.4-0.3,0.6s-0.2,0.4-0.4,0.6c-0.1,0.2-0.3,0.4-0.5,0.6c-0.2,0.2-0.4,0.4-0.6,0.6c-0.2,0.2-0.4,0.4-0.6,0.5
			s-0.4,0.3-0.6,0.4c-0.2,0.1-0.4,0.2-0.6,0.3c-0.2,0.1-0.4,0.2-0.6,0.2s-0.4,0.1-0.6,0.1s-0.4,0-0.6,0s-0.4-0.1-0.5-0.1
			c-0.2-0.1-0.3-0.1-0.5-0.2c-0.2-0.1-0.4-0.2-0.6-0.3s-0.4-0.3-0.6-0.4c-0.2-0.2-0.5-0.3-0.7-0.5l-0.2-0.2l-0.2-0.2l-0.2-0.2
			l-0.2-0.2l0.6-0.8l0.6-0.8l0.6-0.8l0.6-0.8l0.4,0.3l0.4,0.3l0.4,0.3l0.4,0.3c0.1,0.1,0.2,0.2,0.3,0.3c0.1,0.1,0.2,0.1,0.3,0.2
			s0.2,0.1,0.2,0.1c0.1,0,0.1,0,0.2,0.1s0.1,0,0.2,0c0.1,0,0.1,0,0.1,0s0.1-0.1,0.1-0.1c0,0,0.1-0.1,0.1-0.1s0.1-0.1,0.1-0.2
			c0-0.1,0.1-0.1,0.1-0.2s0-0.1,0-0.2c0-0.1,0-0.1,0-0.2c0-0.1,0-0.1-0.1-0.2s-0.1-0.1-0.1-0.2s-0.1-0.1-0.2-0.2s-0.1-0.1-0.2-0.2
			c-0.2-0.2-0.4-0.3-0.5-0.4c-0.2-0.1-0.3-0.2-0.5-0.3s-0.3-0.1-0.4-0.2c-0.1,0-0.2-0.1-0.3-0.1c-0.1,0-0.2,0-0.4,0
			s-0.3,0.1-0.5,0.1s-0.4,0.1-0.7,0.2s-0.5,0.2-0.8,0.2c-0.3,0.1-0.6,0.2-0.9,0.2c-0.3,0.1-0.5,0.1-0.7,0.2s-0.4,0.1-0.6,0.1
			c-0.2,0-0.3,0.1-0.4,0.1c-0.1,0-0.2,0-0.4,0c-0.1,0-0.3,0-0.4,0s-0.3,0-0.4-0.1c-0.1,0-0.3-0.1-0.4-0.1c-0.1,0-0.3-0.1-0.4-0.2
			c-0.2-0.1-0.3-0.2-0.5-0.2s-0.3-0.2-0.5-0.3c-0.2-0.1-0.3-0.2-0.5-0.4c-0.2-0.2-0.5-0.4-0.7-0.6c-0.2-0.2-0.4-0.4-0.5-0.6
			s-0.3-0.4-0.4-0.5c-0.1-0.2-0.2-0.3-0.3-0.5c-0.1-0.2-0.1-0.3-0.1-0.5c0-0.2-0.1-0.3-0.1-0.5s0-0.4,0-0.5c0-0.2,0.1-0.4,0.1-0.6
			c0.1-0.2,0.1-0.4,0.2-0.6c0.1-0.2,0.2-0.4,0.3-0.6s0.2-0.4,0.4-0.6s0.3-0.4,0.5-0.6c0.2-0.2,0.4-0.4,0.5-0.6
			c0.2-0.2,0.4-0.4,0.6-0.5s0.4-0.3,0.6-0.4c0.2-0.1,0.4-0.2,0.6-0.3s0.4-0.2,0.6-0.2c0.2-0.1,0.4-0.1,0.5-0.1s0.3,0,0.5,0
			c0.2,0,0.3,0,0.5,0.1c0.1,0,0.3,0.1,0.5,0.2s0.4,0.2,0.6,0.3s0.4,0.3,0.6,0.4s0.5,0.4,0.7,0.6l0.1,0.1l0.1,0.1l0.1,0.1
			L301.9,140.3z"/>
		<path class="st1" d="M305,128.7l1.5,2.3l1.5,2.3l1.5,2.3l1.5,2.3l1.2,1l1.2,1l1.2,1l1.2,1l-0.6,0.8l-0.6,0.8l-0.6,0.8l-0.6,0.8
			l-1.2-1l-1.2-1l-1.2-1l-1.2-1l-2.5-1.1l-2.5-1.1l-2.5-1.1l-2.5-1.1l0.6-0.8l0.6-0.8l0.6-0.8l0.6-0.8c0.7,0.4,1.4,0.8,2,1.1
			c0.6,0.3,1.1,0.7,1.6,0.9s0.9,0.5,1.2,0.8c0.4,0.2,0.6,0.4,0.9,0.6c-0.3-0.3-0.6-0.7-0.9-1.1c-0.3-0.4-0.7-0.8-1-1.2
			s-0.7-0.9-1.1-1.4c-0.4-0.5-0.8-1-1.2-1.5l0.6-0.8l0.6-0.8l0.6-0.8L305,128.7z"/>
		<path class="st1" d="M315.2,124.3l-0.6,0.8l-0.6,0.8l-0.6,0.8l-0.6,0.8l-0.2-0.2l-0.2-0.2l-0.2-0.2l-0.2-0.2
			c-0.1-0.1-0.2-0.2-0.3-0.2s-0.2-0.1-0.3-0.2s-0.1-0.1-0.2-0.1s-0.1,0-0.2,0c0,0-0.1,0-0.1,0s-0.1,0-0.1,0s-0.1,0-0.1,0.1
			s-0.1,0.1-0.1,0.1c0,0-0.1,0.1-0.1,0.2c0,0.1,0,0.1-0.1,0.2s0,0.1,0,0.2c0,0.1,0,0.1,0,0.2c0,0.1,0,0.1,0.1,0.2s0.1,0.1,0.1,0.2
			s0.1,0.1,0.2,0.2s0.1,0.1,0.2,0.2c0.1,0.1,0.2,0.2,0.3,0.2s0.2,0.1,0.3,0.2s0.2,0.1,0.3,0.1c0.1,0,0.2,0.1,0.2,0.1
			c0.1,0,0.2,0,0.3,0c0.1,0,0.2,0,0.4,0s0.3-0.1,0.4-0.1c0.2,0,0.3-0.1,0.5-0.2c0.5-0.2,1-0.3,1.5-0.5s0.9-0.2,1.2-0.3
			s0.7-0.1,1-0.2s0.6,0,0.8,0c0.2,0,0.5,0.1,0.7,0.2c0.2,0.1,0.5,0.2,0.8,0.3s0.5,0.3,0.8,0.5c0.3,0.2,0.6,0.4,0.9,0.7
			c0.2,0.2,0.4,0.4,0.6,0.6c0.2,0.2,0.4,0.4,0.5,0.5s0.3,0.3,0.4,0.5c0.1,0.2,0.2,0.3,0.2,0.4c0.1,0.1,0.1,0.3,0.1,0.5
			c0,0.2,0.1,0.3,0.1,0.5s0,0.4,0,0.6c0,0.2-0.1,0.4-0.1,0.6c-0.1,0.2-0.1,0.4-0.2,0.6s-0.2,0.4-0.3,0.6s-0.2,0.4-0.4,0.6
			s-0.3,0.4-0.5,0.6c-0.2,0.2-0.4,0.4-0.6,0.6c-0.2,0.2-0.4,0.4-0.6,0.5s-0.4,0.3-0.6,0.4c-0.2,0.1-0.4,0.2-0.6,0.3
			c-0.2,0.1-0.4,0.2-0.6,0.2s-0.4,0.1-0.6,0.1s-0.4,0-0.6,0s-0.4-0.1-0.5-0.1c-0.2-0.1-0.3-0.1-0.5-0.2s-0.4-0.2-0.6-0.3
			s-0.4-0.3-0.6-0.4s-0.5-0.3-0.7-0.5l-0.2-0.2l-0.2-0.2l-0.2-0.2l-0.2-0.2l0.6-0.8l0.6-0.8l0.6-0.8l0.6-0.8l0.4,0.3l0.4,0.3
			l0.4,0.3l0.4,0.3c0.1,0.1,0.2,0.2,0.3,0.3c0.1,0.1,0.2,0.1,0.3,0.2s0.2,0.1,0.2,0.1c0.1,0,0.1,0,0.2,0.1s0.1,0,0.2,0s0.1,0,0.1,0
			s0.1-0.1,0.1-0.1s0.1-0.1,0.1-0.1c0-0.1,0.1-0.1,0.1-0.2c0-0.1,0.1-0.1,0.1-0.2s0-0.1,0-0.2c0-0.1,0-0.1,0-0.2
			c0-0.1,0-0.1-0.1-0.2s-0.1-0.1-0.1-0.2s-0.1-0.1-0.2-0.2s-0.1-0.1-0.2-0.2c-0.2-0.2-0.4-0.3-0.5-0.4c-0.2-0.1-0.3-0.2-0.5-0.3
			s-0.3-0.1-0.4-0.2c-0.1,0-0.2-0.1-0.3-0.1c-0.1,0-0.2,0-0.4,0s-0.3,0.1-0.5,0.1s-0.4,0.1-0.7,0.2s-0.5,0.2-0.8,0.2
			c-0.3,0.1-0.6,0.2-0.9,0.2s-0.5,0.1-0.7,0.2s-0.4,0.1-0.6,0.1s-0.3,0.1-0.4,0.1c-0.1,0-0.2,0-0.4,0c-0.1,0-0.3,0-0.4,0
			s-0.3,0-0.4-0.1c-0.1,0-0.3-0.1-0.4-0.1c-0.1,0-0.3-0.1-0.4-0.2s-0.3-0.2-0.5-0.2s-0.3-0.2-0.5-0.3s-0.3-0.2-0.5-0.4
			c-0.2-0.2-0.5-0.4-0.7-0.6c-0.2-0.2-0.4-0.4-0.5-0.6s-0.3-0.4-0.4-0.5c-0.1-0.2-0.2-0.3-0.3-0.5c-0.1-0.2-0.1-0.3-0.1-0.5
			c0-0.2-0.1-0.3-0.1-0.5s0-0.4,0-0.5c0-0.2,0.1-0.4,0.1-0.6c0.1-0.2,0.1-0.4,0.2-0.6c0.1-0.2,0.2-0.4,0.3-0.6s0.2-0.4,0.4-0.6
			c0.1-0.2,0.3-0.4,0.5-0.6c0.2-0.2,0.4-0.4,0.5-0.6s0.4-0.4,0.6-0.5s0.4-0.3,0.6-0.4s0.4-0.2,0.6-0.3s0.4-0.2,0.6-0.2
			c0.2-0.1,0.4-0.1,0.5-0.1s0.3,0,0.5,0c0.2,0,0.3,0,0.5,0.1c0.1,0,0.3,0.1,0.5,0.2s0.4,0.2,0.6,0.3s0.4,0.3,0.6,0.4
			s0.5,0.4,0.7,0.6l0.1,0.1l0.1,0.1l0.1,0.1L315.2,124.3z"/>
		<path class="st1" d="M318,113.1l0.6,0.5l0.6,0.5l0.6,0.5l0.6,0.5l-0.4,0.5l-0.4,0.5l-0.4,0.5l-0.4,0.5l2.5,2.1l2.5,2.1l2.5,2.1
			l2.5,2.1l-0.7,0.8l-0.7,0.8l-0.7,0.8l-0.7,0.8l-2.5-2.1l-2.5-2.1l-2.5-2.1l-2.5-2.1l-0.4,0.5l-0.4,0.5l-0.4,0.5l-0.4,0.5l-0.6-0.5
			l-0.6-0.5l-0.6-0.5l-0.6-0.5l1.5-1.8l1.5-1.8l1.5-1.8L318,113.1z"/>
		<path class="st1" d="M318.7,112.4l1.2-1.4l1.2-1.4l1.2-1.4l1.2-1.4l0.6,0.5l0.6,0.5l0.6,0.5l0.6,0.5l-0.5,0.6l-0.5,0.6l-0.5,0.6
			l-0.5,0.6l0.6,0.5l0.6,0.5l0.6,0.5l0.6,0.5l0.4-0.5l0.4-0.5l0.4-0.5l0.4-0.5l0.6,0.5l0.6,0.5l0.6,0.5l0.6,0.5l-0.4,0.5l-0.4,0.5
			l-0.4,0.5l-0.4,0.5l0.7,0.6l0.7,0.6l0.7,0.6l0.7,0.6l0.5-0.6l0.5-0.6l0.5-0.6l0.5-0.6l0.6,0.5l0.6,0.5l0.6,0.5l0.6,0.5l-1.2,1.4
			l-1.2,1.4l-1.2,1.4l-1.2,1.4l-3.2-2.7l-3.2-2.7l-3.2-2.7L318.7,112.4z"/>
		<path class="st1" d="M332.8,95.5l3.2,2.7l3.2,2.7l3.2,2.7l3.2,2.7l-0.6,0.7l-0.6,0.7l-0.6,0.7l-0.6,0.7l-2.1-1.8l-2.1-1.8
			l-2.1-1.8l-2.1-1.8l1.9,2.1l1.9,2.1l1.9,2.1l1.9,2.1l-0.4,0.5l-0.4,0.5l-0.4,0.5l-0.4,0.5l-2.4-1.5l-2.4-1.5l-2.4-1.5l-2.4-1.5
			l2.1,1.8l2.1,1.8l2.1,1.8l2.1,1.8l-0.6,0.7l-0.6,0.7l-0.6,0.7l-0.6,0.7l-3.2-2.7l-3.2-2.7l-3.2-2.7l-3.2-2.7l0.9-1.1l0.9-1.1
			l0.9-1.1l0.9-1.1c0.2,0.1,0.4,0.3,0.7,0.4c0.2,0.1,0.5,0.3,0.7,0.4s0.5,0.3,0.8,0.5c0.3,0.2,0.5,0.3,0.8,0.5l0.9,0.6l0.9,0.6
			l0.9,0.6l0.9,0.6l-1.3-1.4l-1.3-1.4l-1.3-1.4l-1.3-1.4l0.9-1.1l0.9-1.1l0.9-1.1L332.8,95.5z"/>
	</g>
	<g>
		<path class="st1" d="M121.4,273.8c5.5-6,11.3-11.6,17.4-16.9c3.1-2.6,6.3-5.1,9.4-7.7l9.4-7.6c6.3-5.1,12.9-9.8,19.7-14.2
			c6.8-4.4,13.9-8.4,21.2-11.9c0,0,0.1,0,0.1,0c0,0,0,0.1,0,0.1c-7,4.1-13.9,8.3-20.6,12.7c-6.8,4.4-13.4,9-19.9,13.8
			c-1.6,1.2-3.3,2.4-4.8,3.6c-1.6,1.2-3.2,2.5-4.7,3.8c-1.5,1.3-3.1,2.6-4.6,4c-1.5,1.4-3,2.7-4.5,4.1
			C133.3,263,127.4,268.4,121.4,273.8C121.4,273.9,121.4,273.9,121.4,273.8C121.4,273.9,121.4,273.8,121.4,273.8z"/>
	</g>
	<g>
		<path class="st1" d="M247.5,256c-2.2,8.4-5.1,16.5-8.6,24.4c-0.9,2-1.8,3.9-2.8,5.8l-1.5,2.9c-0.5,1-0.9,1.9-1.5,2.9
			c-2,3.8-3.9,7.7-6,11.5c-4.1,7.6-8.5,15-13.3,22.2c-4.8,7.2-9.9,14.2-15.3,20.9c0,0,0,0-0.1,0c0,0,0,0,0-0.1
			c4.9-7.1,9.8-14.2,14.5-21.4c4.7-7.2,9.3-14.5,13.7-21.9c2.2-3.7,4.3-7.5,6.1-11.4c1.9-3.9,3.6-7.8,5.3-11.8
			C241.5,272.2,244.6,264.2,247.5,256C247.4,256,247.4,256,247.5,256C247.5,256,247.5,256,247.5,256z"/>
	</g>
	<g>
		<linearGradient id="SVGID_9_" gradientUnits="userSpaceOnUse" x1="69.9118" y1="291.9788" x2="80.7136" y2="291.9788">
			<stop  offset="0.3232" style="stop-color:#24AA00;stop-opacity:0.7"/>
			<stop  offset="0.8035" style="stop-color:#0B620A;stop-opacity:0.9129"/>
			<stop  offset="1" style="stop-color:#00430E"/>
		</linearGradient>
		<path class="st10" d="M80.6,308.1c-19.5-7.8-3-12.6-3-12.6l-5.5-7.5l-1.8-12.4"/>
		<linearGradient id="SVGID_10_" gradientUnits="userSpaceOnUse" x1="33.987" y1="339.5218" x2="67.4924" y2="339.5218">
			<stop  offset="0.3232" style="stop-color:#24AA00;stop-opacity:0.7"/>
			<stop  offset="0.8035" style="stop-color:#0B620A;stop-opacity:0.9129"/>
			<stop  offset="1" style="stop-color:#00430E"/>
		</linearGradient>
		<path class="st11" d="M34.3,344.1c9.1-18.9,12.8-2.1,12.8-2.1l7.9-5l12.5-0.9"/>
		<linearGradient id="SVGID_11_" gradientUnits="userSpaceOnUse" x1="44.0258" y1="291.3044" x2="61.9286" y2="291.3044">
			<stop  offset="0.3232" style="stop-color:#24AA00;stop-opacity:0.7"/>
			<stop  offset="0.8035" style="stop-color:#0B620A;stop-opacity:0.9129"/>
			<stop  offset="1" style="stop-color:#00430E"/>
		</linearGradient>
		<path class="st12" d="M44.1,276.8c20.7,3.1,5.8,11.6,5.8,11.6l7.1,6l4.6,11.7"/>
		<linearGradient id="SVGID_12_" gradientUnits="userSpaceOnUse" x1="2.2141" y1="356.5744" x2="35.7194" y2="356.5744">
			<stop  offset="0.3232" style="stop-color:#24AA00;stop-opacity:0.7"/>
			<stop  offset="0.8035" style="stop-color:#0B620A;stop-opacity:0.9129"/>
			<stop  offset="1" style="stop-color:#00430E"/>
		</linearGradient>
		<path class="st13" d="M2.6,361.2c9.1-18.9,12.8-2.1,12.8-2.1l7.9-5l12.5-0.9"/>
		<linearGradient id="SVGID_13_" gradientUnits="userSpaceOnUse" x1="38.0357" y1="366.021" x2="56.4894" y2="366.021">
			<stop  offset="0.3232" style="stop-color:#24AA00;stop-opacity:0.7"/>
			<stop  offset="0.8035" style="stop-color:#0B620A;stop-opacity:0.9129"/>
			<stop  offset="1" style="stop-color:#00430E"/>
		</linearGradient>
		<path class="st14" d="M56.4,380.4c-20.8-2.7-6-11.5-6-11.5l-7.2-5.9l-4.8-11.6"/>
		<linearGradient id="SVGID_14_" gradientUnits="userSpaceOnUse" x1="65.6546" y1="335.8857" x2="80.3392" y2="335.8857">
			<stop  offset="0.3232" style="stop-color:#24AA00;stop-opacity:0.7"/>
			<stop  offset="0.8035" style="stop-color:#0B620A;stop-opacity:0.9129"/>
			<stop  offset="1" style="stop-color:#00430E"/>
		</linearGradient>
		<path class="st15" d="M75.5,328.9c7,3.4,5.3,14.3-2.2,13.9c-7.6-0.4-7.6-0.4-7.6-0.4l0,0"/>
		<linearGradient id="SVGID_15_" gradientUnits="userSpaceOnUse" x1="77.8847" y1="317.2602" x2="94.5242" y2="317.2602">
			<stop  offset="0.3232" style="stop-color:#24AA00;stop-opacity:0.7"/>
			<stop  offset="0.8035" style="stop-color:#0B620A;stop-opacity:0.9129"/>
			<stop  offset="1" style="stop-color:#00430E"/>
		</linearGradient>
		<path class="st16" d="M94.2,316.3c-1.1,7.7-12,9.5-14,2.1c-1.9-7.3-1.9-7.3-1.9-7.3l0,0"/>
		<linearGradient id="SVGID_16_" gradientUnits="userSpaceOnUse" x1="46.4451" y1="357.242" x2="62.0855" y2="357.242">
			<stop  offset="0.3232" style="stop-color:#24AA00;stop-opacity:0.7"/>
			<stop  offset="0.8035" style="stop-color:#0B620A;stop-opacity:0.9129"/>
			<stop  offset="1" style="stop-color:#00430E"/>
		</linearGradient>
		<path class="st17" d="M46.8,356.4c2.3-7.5,13.3-7.5,14.1,0.1c0.8,7.6,0.8,7.6,0.8,7.6l0,0"/>
		<linearGradient id="SVGID_17_" gradientUnits="userSpaceOnUse" x1="49.666" y1="320.039" x2="67.244" y2="320.039">
			<stop  offset="0.3232" style="stop-color:#24AA00;stop-opacity:0.7"/>
			<stop  offset="0.8035" style="stop-color:#0B620A;stop-opacity:0.9129"/>
			<stop  offset="1" style="stop-color:#00430E"/>
		</linearGradient>
		<path class="st18" d="M66.7,315.2c1.5,7.7-8.3,12.8-12.5,6.5s-4.2-6.3-4.2-6.3l0,0"/>
		<linearGradient id="SVGID_18_" gradientUnits="userSpaceOnUse" x1="31.9824" y1="323.5277" x2="47.6228" y2="323.5277">
			<stop  offset="0.3232" style="stop-color:#24AA00;stop-opacity:0.7"/>
			<stop  offset="0.8035" style="stop-color:#0B620A;stop-opacity:0.9129"/>
			<stop  offset="1" style="stop-color:#00430E"/>
		</linearGradient>
		<path class="st19" d="M32.3,322.7c2.3-7.5,13.3-7.5,14.1,0.1c0.8,7.6,0.8,7.6,0.8,7.6l0,0"/>
		<linearGradient id="SVGID_19_" gradientUnits="userSpaceOnUse" x1="112.0826" y1="236.1728" x2="130.9404" y2="236.1728">
			<stop  offset="0.3232" style="stop-color:#24AA00;stop-opacity:0.7"/>
			<stop  offset="0.8035" style="stop-color:#0B620A;stop-opacity:0.9129"/>
			<stop  offset="1" style="stop-color:#00430E"/>
		</linearGradient>
		<path class="st20" d="M114.9,251.3c-8.3-19.3,6.8-11,6.8-11l1.4-9.2l7.5-10"/>
		<linearGradient id="SVGID_20_" gradientUnits="userSpaceOnUse" x1="56.6314" y1="252.0217" x2="86.0937" y2="252.0217">
			<stop  offset="0.3232" style="stop-color:#24AA00;stop-opacity:0.7"/>
			<stop  offset="0.8035" style="stop-color:#0B620A;stop-opacity:0.9129"/>
			<stop  offset="1" style="stop-color:#00430E"/>
		</linearGradient>
		<path class="st21" d="M56.8,244.1c19.8-6.9,10.5,7.6,10.5,7.6l9.1,2l9.5,8.2"/>
		<linearGradient id="SVGID_21_" gradientUnits="userSpaceOnUse" x1="102.5957" y1="219.9052" x2="116.2853" y2="219.9052">
			<stop  offset="0.3232" style="stop-color:#24AA00;stop-opacity:0.7"/>
			<stop  offset="0.8035" style="stop-color:#0B620A;stop-opacity:0.9129"/>
			<stop  offset="1" style="stop-color:#00430E"/>
		</linearGradient>
		<path class="st22" d="M111.3,203.4c12.5,16.8-4.1,12.3-4.1,12.3l0.8,9.3l-5,11.5"/>
		<linearGradient id="SVGID_22_" gradientUnits="userSpaceOnUse" x1="41.5447" y1="268.823" x2="54.7822" y2="268.823">
			<stop  offset="0.3232" style="stop-color:#24AA00;stop-opacity:0.7"/>
			<stop  offset="0.8035" style="stop-color:#0B620A;stop-opacity:0.9129"/>
			<stop  offset="1" style="stop-color:#00430E"/>
		</linearGradient>
		<path class="st23" d="M46.8,285.4C34,268.8,50.6,273,50.6,273l-1-9.3l4.8-11.6"/>
		<linearGradient id="SVGID_23_" gradientUnits="userSpaceOnUse" x1="79.8237" y1="267.7954" x2="97.4668" y2="267.7954">
			<stop  offset="0.3232" style="stop-color:#24AA00;stop-opacity:0.7"/>
			<stop  offset="0.8035" style="stop-color:#0B620A;stop-opacity:0.9129"/>
			<stop  offset="1" style="stop-color:#00430E"/>
		</linearGradient>
		<path class="st24" d="M96.6,262.5c2.6,7.4-6.4,13.9-11.5,8.3s-5.1-5.6-5.1-5.6l0,0"/>
		<linearGradient id="SVGID_24_" gradientUnits="userSpaceOnUse" x1="106.0362" y1="260.1975" x2="118.9282" y2="260.1975">
			<stop  offset="0.3232" style="stop-color:#24AA00;stop-opacity:0.7"/>
			<stop  offset="0.8035" style="stop-color:#0B620A;stop-opacity:0.9129"/>
			<stop  offset="1" style="stop-color:#00430E"/>
		</linearGradient>
		<path class="st25" d="M118.7,266.8c-6.3,4.7-15.2-1.8-11.4-8.4c3.8-6.6,3.8-6.6,3.8-6.6l0,0"/>
		<linearGradient id="SVGID_25_" gradientUnits="userSpaceOnUse" x1="46.4478" y1="230.1328" x2="63.9371" y2="230.1328">
			<stop  offset="0.3232" style="stop-color:#24AA00;stop-opacity:0.7"/>
			<stop  offset="0.8035" style="stop-color:#0B620A;stop-opacity:0.9129"/>
			<stop  offset="1" style="stop-color:#00430E"/>
		</linearGradient>
		<path class="st26" d="M62.6,224.3c3.7,6.9-4.1,14.7-10,9.9c-5.9-4.8-5.9-4.8-5.9-4.8l0,0"/>
		<linearGradient id="SVGID_26_" gradientUnits="userSpaceOnUse" x1="56.7102" y1="269.052" x2="68.6785" y2="269.052">
			<stop  offset="0.3232" style="stop-color:#24AA00;stop-opacity:0.7"/>
			<stop  offset="0.8035" style="stop-color:#0B620A;stop-opacity:0.9129"/>
			<stop  offset="1" style="stop-color:#00430E"/>
		</linearGradient>
		<path class="st27" d="M56.9,261.6c6.9-3.7,14.7,4.1,9.9,10s-4.8,5.9-4.8,5.9l0,0"/>
		<linearGradient id="SVGID_27_" gradientUnits="userSpaceOnUse" x1="82.6664" y1="291.0157" x2="96.9695" y2="291.0157">
			<stop  offset="0.3232" style="stop-color:#24AA00;stop-opacity:0.7"/>
			<stop  offset="0.8035" style="stop-color:#0B620A;stop-opacity:0.9129"/>
			<stop  offset="1" style="stop-color:#00430E"/>
		</linearGradient>
		<path class="st28" d="M96.7,295c-4.4,6.5-15,3.2-13.5-4.2c1.5-7.4,1.5-7.4,1.5-7.4l0,0"/>
		<linearGradient id="SVGID_28_" gradientUnits="userSpaceOnUse" x1="70.3233" y1="234.9856" x2="82.2916" y2="234.9856">
			<stop  offset="0.3232" style="stop-color:#24AA00;stop-opacity:0.7"/>
			<stop  offset="0.8035" style="stop-color:#0B620A;stop-opacity:0.9129"/>
			<stop  offset="1" style="stop-color:#00430E"/>
		</linearGradient>
		<path class="st29" d="M70.5,227.6c6.9-3.7,14.7,4.1,9.9,10c-4.8,5.9-4.8,5.9-4.8,5.9l0,0"/>
	</g>
	<g>
		<linearGradient id="SVGID_29_" gradientUnits="userSpaceOnUse" x1="252.5233" y1="372.1145" x2="280.0945" y2="372.1145">
			<stop  offset="0.3232" style="stop-color:#24AA00;stop-opacity:0.7"/>
			<stop  offset="0.8035" style="stop-color:#0B620A;stop-opacity:0.9129"/>
			<stop  offset="1" style="stop-color:#00430E"/>
		</linearGradient>
		<path class="st30" d="M280,381.8c-20.4,4.9-9.7-8.5-9.7-8.5l-8.9-2.9l-8.6-9.1"/>
		<linearGradient id="SVGID_30_" gradientUnits="userSpaceOnUse" x1="223.3298" y1="371.8383" x2="234.0393" y2="371.8383">
			<stop  offset="0.3232" style="stop-color:#24AA00;stop-opacity:0.7"/>
			<stop  offset="0.8035" style="stop-color:#0B620A;stop-opacity:0.9129"/>
			<stop  offset="1" style="stop-color:#00430E"/>
		</linearGradient>
		<path class="st31" d="M227.8,355c14.5,15.2-2.5,12.7-2.5,12.7l1.9,9.1l-3.5,12"/>
		<linearGradient id="SVGID_31_" gradientUnits="userSpaceOnUse" x1="251.2575" y1="340.7866" x2="285.0993" y2="340.7866">
			<stop  offset="0.3232" style="stop-color:#24AA00;stop-opacity:0.7"/>
			<stop  offset="0.8035" style="stop-color:#0B620A;stop-opacity:0.9129"/>
			<stop  offset="1" style="stop-color:#00430E"/>
		</linearGradient>
		<path class="st32" d="M284.9,341.4c-16.1,13.4-12.5-3.4-12.5-3.4l-9.2,1.3l-11.7-4.4"/>
		<linearGradient id="SVGID_32_" gradientUnits="userSpaceOnUse" x1="239.7187" y1="381.8196" x2="248.2328" y2="381.8196">
			<stop  offset="0.3232" style="stop-color:#24AA00;stop-opacity:0.7"/>
			<stop  offset="0.8035" style="stop-color:#0B620A;stop-opacity:0.9129"/>
			<stop  offset="1" style="stop-color:#00430E"/>
		</linearGradient>
		<path class="st33" d="M248,398.6c-17.6-11.4-0.5-12.9-0.5-12.9l-4-8.4l0.7-12.5"/>
		<linearGradient id="SVGID_33_" gradientUnits="userSpaceOnUse" x1="279.5975" y1="316.0103" x2="288.2689" y2="316.0103">
			<stop  offset="0.3232" style="stop-color:#24AA00;stop-opacity:0.7"/>
			<stop  offset="0.8035" style="stop-color:#0B620A;stop-opacity:0.9129"/>
			<stop  offset="1" style="stop-color:#00430E"/>
		</linearGradient>
		<path class="st34" d="M279.8,299.3c17.8,11.1,0.7,12.9,0.7,12.9l4.1,8.4l-0.4,12.5"/>
		<linearGradient id="SVGID_34_" gradientUnits="userSpaceOnUse" x1="238.8731" y1="331.8423" x2="255.8215" y2="331.8423">
			<stop  offset="0.3232" style="stop-color:#24AA00;stop-opacity:0.7"/>
			<stop  offset="0.8035" style="stop-color:#0B620A;stop-opacity:0.9129"/>
			<stop  offset="1" style="stop-color:#00430E"/>
		</linearGradient>
		<path class="st35" d="M241.1,338.2c-5-6,1.1-15.3,7.8-11.8s6.7,3.5,6.7,3.5l0,0"/>
		<linearGradient id="SVGID_35_" gradientUnits="userSpaceOnUse" x1="218.5823" y1="345.5537" x2="232.966" y2="345.5537">
			<stop  offset="0.3232" style="stop-color:#24AA00;stop-opacity:0.7"/>
			<stop  offset="0.8035" style="stop-color:#0B620A;stop-opacity:0.9129"/>
			<stop  offset="1" style="stop-color:#00430E"/>
		</linearGradient>
		<path class="st36" d="M218.9,341.9c4.2-6.6,14.9-3.6,13.6,3.9c-1.3,7.5-1.3,7.5-1.3,7.5l0,0"/>
		<linearGradient id="SVGID_36_" gradientUnits="userSpaceOnUse" x1="283.2404" y1="355.369" x2="299.5312" y2="355.369">
			<stop  offset="0.3232" style="stop-color:#24AA00;stop-opacity:0.7"/>
			<stop  offset="0.8035" style="stop-color:#0B620A;stop-opacity:0.9129"/>
			<stop  offset="1" style="stop-color:#00430E"/>
		</linearGradient>
		<path class="st37" d="M286.3,362c-5.9-5.2-1.3-15.3,5.9-12.8c7.2,2.4,7.2,2.4,7.2,2.4l0,0"/>
		<linearGradient id="SVGID_37_" gradientUnits="userSpaceOnUse" x1="255.7752" y1="392.8023" x2="266.6332" y2="392.8023">
			<stop  offset="0.3232" style="stop-color:#24AA00;stop-opacity:0.7"/>
			<stop  offset="0.8035" style="stop-color:#0B620A;stop-opacity:0.9129"/>
			<stop  offset="1" style="stop-color:#00430E"/>
		</linearGradient>
		<path class="st38" d="M266.5,400.8c-7.4,2.5-13.9-6.5-8.2-11.5c5.7-5,5.7-5,5.7-5l0,0"/>
		<linearGradient id="SVGID_38_" gradientUnits="userSpaceOnUse" x1="265.0414" y1="319.9637" x2="278.8933" y2="319.9637">
			<stop  offset="0.3232" style="stop-color:#24AA00;stop-opacity:0.7"/>
			<stop  offset="0.8035" style="stop-color:#0B620A;stop-opacity:0.9129"/>
			<stop  offset="1" style="stop-color:#00430E"/>
		</linearGradient>
		<path class="st39" d="M278.6,325.1c-5.2,5.9-15.3,1.3-12.8-5.9c2.4-7.2,2.4-7.2,2.4-7.2l0,0"/>
		<linearGradient id="SVGID_39_" gradientUnits="userSpaceOnUse" x1="243.0227" y1="354.4711" x2="259.073" y2="354.4711">
			<stop  offset="0.3232" style="stop-color:#24AA00;stop-opacity:0.7"/>
			<stop  offset="0.8035" style="stop-color:#0B620A;stop-opacity:0.9129"/>
			<stop  offset="1" style="stop-color:#00430E"/>
		</linearGradient>
		<path class="st40" d="M243.4,354.3c1.9-7.6,12.9-8.2,14.1-0.7c1.2,7.5,1.2,7.5,1.2,7.5l0,0"/>
		<linearGradient id="SVGID_40_" gradientUnits="userSpaceOnUse" x1="264.1976" y1="356.6394" x2="278.0494" y2="356.6394">
			<stop  offset="0.3232" style="stop-color:#24AA00;stop-opacity:0.7"/>
			<stop  offset="0.8035" style="stop-color:#0B620A;stop-opacity:0.9129"/>
			<stop  offset="1" style="stop-color:#00430E"/>
		</linearGradient>
		<path class="st41" d="M277.8,361.7c-5.2,5.9-15.3,1.3-12.8-5.9c2.4-7.2,2.4-7.2,2.4-7.2l0,0"/>
		<linearGradient id="SVGID_41_" gradientUnits="userSpaceOnUse" x1="186.4982" y1="414.5738" x2="195.2406" y2="414.5738">
			<stop  offset="0.3232" style="stop-color:#24AA00;stop-opacity:0.7"/>
			<stop  offset="0.8035" style="stop-color:#0B620A;stop-opacity:0.9129"/>
			<stop  offset="1" style="stop-color:#00430E"/>
		</linearGradient>
		<path class="st42" d="M195,431.3c-17.9-10.9-0.8-12.9-0.8-12.9l-4.2-8.3l0.3-12.5"/>
		<linearGradient id="SVGID_42_" gradientUnits="userSpaceOnUse" x1="145.9714" y1="403.0058" x2="173.3797" y2="403.0058">
			<stop  offset="0.3232" style="stop-color:#24AA00;stop-opacity:0.7"/>
			<stop  offset="0.8035" style="stop-color:#0B620A;stop-opacity:0.9129"/>
			<stop  offset="1" style="stop-color:#00430E"/>
		</linearGradient>
		<path class="st43" d="M173,392.3c-0.5,21-10.8,7.2-10.8,7.2l-5.1,7.8l-11,6"/>
		<linearGradient id="SVGID_43_" gradientUnits="userSpaceOnUse" x1="203.5029" y1="409.0609" x2="222.9641" y2="409.0609">
			<stop  offset="0.3232" style="stop-color:#24AA00;stop-opacity:0.7"/>
			<stop  offset="0.8035" style="stop-color:#0B620A;stop-opacity:0.9129"/>
			<stop  offset="1" style="stop-color:#00430E"/>
		</linearGradient>
		<path class="st44" d="M222.9,423.1c-20.9-1.9-6.4-11.2-6.4-11.2l-7.5-5.6l-5.2-11.4"/>
		<linearGradient id="SVGID_44_" gradientUnits="userSpaceOnUse" x1="155.1881" y1="424.0606" x2="177.9929" y2="424.0606">
			<stop  offset="0.3232" style="stop-color:#24AA00;stop-opacity:0.7"/>
			<stop  offset="0.8035" style="stop-color:#0B620A;stop-opacity:0.9129"/>
			<stop  offset="1" style="stop-color:#00430E"/>
		</linearGradient>
		<path class="st45" d="M156.4,437.5c-4.4-20.5,8.8-9.5,8.8-9.5l3.2-8.8l9.3-8.4"/>
		<linearGradient id="SVGID_45_" gradientUnits="userSpaceOnUse" x1="193.8968" y1="388.3359" x2="210.7632" y2="388.3359">
			<stop  offset="0.3232" style="stop-color:#24AA00;stop-opacity:0.7"/>
			<stop  offset="0.8035" style="stop-color:#0B620A;stop-opacity:0.9129"/>
			<stop  offset="1" style="stop-color:#00430E"/>
		</linearGradient>
		<path class="st46" d="M194.3,389.8c0.7-7.8,11.6-10,13.9-2.8c2.3,7.2,2.3,7.2,2.3,7.2l0,0"/>
		<linearGradient id="SVGID_46_" gradientUnits="userSpaceOnUse" x1="175.9055" y1="384.9706" x2="185.9225" y2="384.9706">
			<stop  offset="0.3232" style="stop-color:#24AA00;stop-opacity:0.7"/>
			<stop  offset="0.8035" style="stop-color:#0B620A;stop-opacity:0.9129"/>
			<stop  offset="1" style="stop-color:#00430E"/>
		</linearGradient>
		<path class="st47" d="M176,376.7c7.6-1.7,13.1,8,6.9,12.3c-6.2,4.4-6.2,4.4-6.2,4.4l0,0"/>
		<linearGradient id="SVGID_47_" gradientUnits="userSpaceOnUse" x1="221.3194" y1="398.8003" x2="232.1761" y2="398.8003">
			<stop  offset="0.3232" style="stop-color:#24AA00;stop-opacity:0.7"/>
			<stop  offset="0.8035" style="stop-color:#0B620A;stop-opacity:0.9129"/>
			<stop  offset="1" style="stop-color:#00430E"/>
		</linearGradient>
		<path class="st48" d="M230.1,407.1c-7.8,0.5-11.7-9.9-4.9-13.3s6.8-3.4,6.8-3.4l0,0"/>
		<linearGradient id="SVGID_48_" gradientUnits="userSpaceOnUse" x1="207.5558" y1="367.3802" x2="219.8791" y2="367.3802">
			<stop  offset="0.3232" style="stop-color:#24AA00;stop-opacity:0.7"/>
			<stop  offset="0.8035" style="stop-color:#0B620A;stop-opacity:0.9129"/>
			<stop  offset="1" style="stop-color:#00430E"/>
		</linearGradient>
		<path class="st49" d="M207.8,360.2c6.7-4.1,14.9,3.3,10.5,9.5s-4.4,6.2-4.4,6.2l0,0"/>
	</g>
	<g>
		<path class="st1" d="M402.4,18.9l11.4-10.2l-10,11.6c-0.4,0.4-1,0.5-1.4,0.1S402,19.4,402.4,18.9C402.4,19,402.4,18.9,402.4,18.9z
			"/>
	</g>
	<g>
		<linearGradient id="SVGID_49_" gradientUnits="userSpaceOnUse" x1="412.1776" y1="4.662" x2="421.5016" y2="4.662">
			<stop  offset="0.3232" style="stop-color:#24AA00;stop-opacity:0.7"/>
			<stop  offset="0.8035" style="stop-color:#0B620A;stop-opacity:0.9129"/>
			<stop  offset="1" style="stop-color:#00430E"/>
		</linearGradient>
		<circle class="st50" cx="416.8" cy="4.7" r="4.7"/>
		<g>
			<path class="st1" d="M421.5,4.7c0,1.2-0.4,2.5-1.2,3.5c-0.8,1-2.2,1.6-3.5,1.5c-1.3-0.1-2.5-0.7-3.4-1.6
				c-0.9-0.9-1.4-2.1-1.5-3.4c-0.1-1.3,0.4-2.6,1.3-3.5c0.9-1,2.2-1.5,3.5-1.5c1.3,0,2.6,0.6,3.5,1.6C421.2,2.2,421.5,3.4,421.5,4.7
				z M421.5,4.7c0-1.2-0.6-2.4-1.5-3.1c-0.9-0.7-2-1.2-3.1-1.1c-1.1,0-2.2,0.4-3,1.2c-0.8,0.8-1.3,1.9-1.4,3
				c-0.1,1.2,0.4,2.4,1.2,3.2c0.9,0.8,2.1,1.2,3.2,1.1c1.1,0,2.2-0.5,3.1-1.2C420.9,7,421.5,5.9,421.5,4.7z"/>
		</g>
	</g>
</g>
<g id="bg" class="st51">
</g>
</svg>
